<svg width="591" height="307" viewBox="0 0 591 307" fill="none" xmlns="http://www.w3.org/2000/svg">
<rect width="591" height="307" fill="url(#paint0_linear)"/>
<path d="M414.308 115.558L454.705 45.3428C456.985 41.4065 455.607 36.4064 451.737 34.119C447.866 31.8318 442.83 33.1616 440.603 37.0979L399.675 108.217C368.449 93.9081 333.3 85.9292 295.5 85.9292C257.7 85.9292 222.551 93.9081 191.325 108.217L150.397 37.0979C148.117 33.1616 143.134 31.8318 139.21 34.119C135.287 36.4064 133.962 41.4065 136.242 45.3428L176.639 115.558C106.977 153.431 59.7933 224.178 52 307H539C531.207 224.178 484.023 153.431 414.308 115.558ZM183.69 238.381C172.398 238.381 163.279 229.178 163.279 217.901C163.279 206.571 172.451 197.422 183.69 197.422C194.983 197.422 204.101 206.625 204.101 217.901C204.155 229.178 194.983 238.381 183.69 238.381ZM407.257 238.381C395.964 238.381 386.846 229.178 386.846 217.901C386.846 206.571 396.017 197.422 407.257 197.422C418.549 197.422 427.668 206.625 427.668 217.901C427.721 229.178 418.549 238.381 407.257 238.381Z" fill="white"/>
<defs>
<linearGradient id="paint0_linear" x1="0" y1="0" x2="556.839" y2="359.86" gradientUnits="userSpaceOnUse">
<stop stop-color="#754C9E"/>
<stop offset="1" stop-color="#F26922"/>
</linearGradient>
</defs>
</svg>
