<svg width="166" height="166" viewBox="0 0 166 166" fill="none" xmlns="http://www.w3.org/2000/svg">
<path d="M120.806 6.29559C123.273 2.30196 128.511 1.06477 132.504 3.53226C136.498 5.99974 137.735 11.2375 135.268 15.2311L120.806 6.29559ZM40.4181 164.009C35.8494 165.088 31.2709 162.259 30.1918 157.691L12.606 83.2394C11.5269 78.6707 14.3557 74.0922 18.9244 73.0131C23.4931 71.9339 28.0716 74.7628 29.1507 79.3315L44.7825 145.51L110.961 129.879C115.53 128.799 120.109 131.628 121.188 136.197C122.267 140.766 119.438 145.344 114.869 146.423L40.4181 164.009ZM135.268 15.2311L45.6952 160.204L31.233 151.269L120.806 6.29559L135.268 15.2311Z" fill="white"/>
</svg>
