<svg width="591" height="307" viewBox="0 0 591 307" fill="none" xmlns="http://www.w3.org/2000/svg">
<rect width="591" height="307" fill="url(#paint0_linear)"/>
<path d="M376.285 186.488C374.736 207.908 366.806 224.77 352.496 237.074C338.277 249.379 319.501 255.531 296.168 255.531C270.647 255.531 250.549 246.964 235.875 229.828C221.292 212.602 214 188.995 214 159.008V146.84C214 127.699 217.372 110.837 224.117 96.2539C230.862 81.6706 240.478 70.5052 252.965 62.7578C265.543 54.9193 280.126 51 296.715 51C319.684 51 338.186 57.1523 352.223 69.457C366.259 81.7617 374.371 99.0339 376.559 121.273H335.543C334.54 108.422 330.94 99.125 324.742 93.3828C318.635 87.5495 309.293 84.6328 296.715 84.6328C283.043 84.6328 272.789 89.5547 265.953 99.3984C259.208 109.151 255.745 124.327 255.562 144.926V159.965C255.562 181.475 258.798 197.198 265.27 207.133C271.832 217.068 282.132 222.035 296.168 222.035C308.837 222.035 318.271 219.164 324.469 213.422C330.758 207.589 334.358 198.611 335.27 186.488H376.285Z" fill="white"/>
<defs>
<linearGradient id="paint0_linear" x1="0" y1="0" x2="556.839" y2="359.86" gradientUnits="userSpaceOnUse">
<stop stop-color="#754C9E"/>
<stop offset="1" stop-color="#F26922"/>
</linearGradient>
</defs>
</svg>
