<svg width="320" height="320" viewBox="0 0 320 320" fill="none" xmlns="http://www.w3.org/2000/svg">
<path fill-rule="evenodd" clip-rule="evenodd" d="M160 320C248.366 320 320 248.366 320 160C320 71.6344 248.366 0 160 0C71.6344 0 0 71.6344 0 160C0 248.366 71.6344 320 160 320ZM148.005 255.637L179.196 263.635L227.791 234.482L246 88.7309L96.2057 59L73 236.402L106.987 245.116L102.558 260.383L119.142 256.549L134.904 269L142.624 231.015L113.084 224.083L110.863 231.742L87.77 225.782L106.757 73.8654L231.232 99.3491L216.465 220.396L176.381 214.028L170.051 247.018L149.727 241.774L148.005 255.637ZM212.246 133.33L214.354 118.464L123.635 101.475L121.527 116.338L212.246 133.33ZM119.414 131.206L117.308 146.071L180.597 156.69L182.71 141.824L119.414 131.206ZM147.989 224.129L151.591 214.72L162.907 211.403L161.585 199.266L167.542 189.761L157.371 182.575L156.121 169.348L144.237 171.922L134.214 162.555L127.198 171.996L115.607 170.205L113.604 184.331L104.611 191.462L111.309 202.823L109.526 215.801L147.989 224.129Z" fill="white"/>
</svg>
