<svg width="728" height="539" viewBox="0 0 728 539" fill="none" xmlns="http://www.w3.org/2000/svg">
<path fill-rule="evenodd" clip-rule="evenodd" d="M589.446 289.013C587.304 291.959 586.901 295.844 588.601 299.064C596.503 314.03 612.09 336.098 636.276 339.177C639.81 339.627 643.118 341.433 644.908 344.513L647.74 349.383C649.492 352.398 649.588 356.128 647.727 359.077C626.135 393.305 576.584 418.259 492.931 419.805C488.114 419.894 483.965 423.381 483.084 428.118V428.118C482.08 433.516 485.772 438.6 490.531 441.338C501.527 447.665 505.674 460.215 506.082 470.85C506.268 475.724 502.026 479.284 497.149 479.307L423.682 479.651C419.738 479.669 416.153 477.369 414.526 473.777L391.567 423.093C389.921 419.46 386.273 417.152 382.284 417.221L255.162 419.43C251.674 419.49 248.47 421.364 246.707 424.374L242.716 431.188C239.072 437.41 243.272 446.186 248.152 451.495C252.743 456.489 255.836 463.541 256.963 470.955C257.745 476.106 253.31 480.172 248.1 480.195L186.541 480.478C182.693 480.496 179.176 478.304 177.497 474.841L155.888 430.271C153.782 425.928 148.874 423.709 144.222 424.996L65.2972 446.836C56.3684 449.307 49.1703 439.357 54.3109 431.65L92.3958 374.55C96.5681 368.294 92.603 359.844 85.1252 359.056L36.5116 353.93C27.5817 352.988 24.3218 341.667 31.3833 336.121L95.6846 285.616C101.826 280.792 100.316 271.106 92.9982 268.38L47.4097 251.4C38.9477 248.248 38.6668 236.382 46.97 232.834L117.727 202.592C123.617 200.075 125.655 192.748 121.911 187.552L86.2513 138.054C80.9904 130.752 87.2997 120.76 96.1546 122.37L169.038 135.627C176.039 136.901 182.092 130.662 180.608 123.703L169.901 73.505C168.051 64.8303 177.572 58.2195 185.053 62.9844L245.977 101.787C252.275 105.798 260.588 101.743 261.303 94.3099L266.682 38.3905C267.478 30.1093 277.449 26.3653 283.5 32.0755L342.456 87.7185C347.602 92.5756 356.027 90.6973 358.623 84.1141L380.745 28.0057C384.095 19.5098 396.144 19.5803 399.394 28.1148L425.829 97.5321C428.321 104.075 436.592 106.098 441.822 101.443L487.795 60.5276C494.321 54.7198 504.633 59.4839 504.441 68.2176L502.878 139.285C502.716 146.62 510.245 151.626 516.945 148.639L567.103 126.288C574.079 123.179 581.823 128.721 581.133 136.326L576.119 191.536C575.567 197.61 580.534 202.758 586.623 202.426L634.101 199.834C642.512 199.375 647.688 208.885 642.735 215.699L589.446 289.013ZM432.05 276.906C387.028 276.906 384.907 345.56 432.817 345.56C476.66 345.56 476.955 276.906 432.05 276.906ZM526.338 287.531C494.634 287.531 493.102 335.879 526.868 335.879C557.924 335.879 558.101 287.531 526.515 287.531H526.338ZM359.512 468.39C360.873 474.209 356.151 479.486 350.175 479.533L295.485 479.963C290.298 480.004 285.941 476.072 285.451 470.908L283.97 455.302C283.402 449.314 288.21 444.183 294.222 444.362L336.584 445.619C350.825 445.079 356.71 456.409 359.512 468.39ZM625.693 478.291C625.693 478.276 625.681 478.264 625.667 478.264L546.786 478.643C542.462 478.663 538.615 475.903 537.25 471.8L532.225 456.7C530.044 450.145 535.009 443.405 541.916 443.545L591.868 444.557C609.761 444.028 621.756 463.275 625.642 478.299C625.649 478.329 625.693 478.321 625.693 478.291V478.291Z" fill="white"/>
<path d="M531.419 85.9573L528.577 45.6978C527.541 31.0346 508.587 25.9077 500.309 38.052L477.582 71.3956L438.431 61.6579C424.172 58.1113 413.446 74.5473 422.431 86.1768L447.11 118.12L425.754 152.371C417.979 164.841 430.304 180.126 444.137 175.169L482.109 161.561L508.057 192.458C517.509 203.714 535.853 196.724 535.415 182.033L534.214 141.68L571.616 126.528C585.233 121.012 584.244 101.408 570.141 97.2829L531.419 85.9573Z" stroke="#754C9E" stroke-width="17" stroke-linecap="round" stroke-linejoin="round"/>
<path d="M416.239 402.324C413.096 403.603 339.3 432.895 308.393 356.814C306.605 352.412 301.557 350.803 297.785 352.337C293.385 354.128 291.775 359.179 293.308 362.952C294.585 366.095 323.842 439.918 247.786 470.862C243.387 472.652 241.776 477.703 243.309 481.476C244.841 485.248 250.145 487.487 253.917 485.952C257.06 484.673 330.856 455.381 361.763 531.463C363.551 535.864 368.599 537.474 372.371 535.939C376.771 534.149 378.381 529.098 376.848 525.325C375.571 522.181 346.314 448.359 422.37 417.415C426.769 415.625 428.38 410.574 426.847 406.801C425.314 403.028 420.639 400.534 416.239 402.324ZM353.469 489.41C333.45 468.98 309.23 463.447 288.82 463.692C309.247 443.657 314.784 419.424 314.546 399.005C334.565 419.435 358.785 424.968 379.195 424.724C359.652 445.131 354.115 469.364 353.469 489.41Z" fill="#754C9E"/>
<path d="M269.304 234.538C268.855 231.523 266.71 229.031 263.791 228.142L202.105 209.366L274.487 110.358C276.757 107.251 276.459 102.962 273.775 100.201C271.094 97.4441 266.811 97.0184 263.639 99.1925L105.493 207.75C102.991 209.466 101.695 212.465 102.16 215.461C102.623 218.462 104.763 220.925 107.666 221.809L163.298 238.742L85.5837 344.493C83.3119 347.582 83.5935 351.856 86.2467 354.625C87.2121 355.633 88.3857 356.335 89.6458 356.719C91.8533 357.391 94.3157 357.088 96.344 355.726L265.885 242.253C268.422 240.562 269.752 237.556 269.304 234.538ZM124.978 317.56L182.628 239.114C184.144 237.053 184.563 234.382 183.756 231.948C182.947 229.521 181.013 227.632 178.559 226.886L127.961 211.485L234.418 138.406L182.794 209.021C181.285 211.084 180.87 213.753 181.68 216.177C182.489 218.601 184.425 220.486 186.872 221.231L243.26 238.395L124.978 317.56Z" fill="#754C9E"/>
</svg>
