<svg width="728" height="539" viewBox="0 0 728 539" fill="none" xmlns="http://www.w3.org/2000/svg">
<path fill-rule="evenodd" clip-rule="evenodd" d="M585.975 293.789C593.164 309.137 611.314 339.539 642.017 339.539L650.562 354.238C630.054 392.077 577.312 419.881 484.616 419.881L481.257 437.945C503.414 442.255 507.834 465.69 505.595 479.268L417.2 479.681L388.855 417.107L249.545 419.527L234.99 444.38C249.486 446.092 258.562 463.919 257.324 480.153L180.244 480.507L152.253 422.774L39.4023 454.002L101.573 360.79L12 351.345L109.705 274.603L23.9627 242.667L129.211 197.684L71.7547 117.932L183.721 138.298L164.922 50.1631L259.74 110.553L268.639 18.0496L353.203 97.8611L390.21 4L430.99 111.084L504.946 45.2634L502.53 155.063L582.675 119.349L575.073 203.056L655.099 198.688L585.975 293.789ZM432.05 276.906C387.028 276.906 384.907 345.56 432.817 345.56C476.66 345.56 476.955 276.906 432.05 276.906ZM526.338 287.531C494.634 287.531 493.102 335.879 526.868 335.879C557.924 335.879 558.101 287.531 526.515 287.531H526.338ZM361.394 479.445L286.317 480.035L282.9 444.025L336.584 445.619C355.265 444.911 359.567 464.628 361.394 479.445ZM625.693 478.264L539.538 478.677L527.752 443.258L591.868 444.557C609.841 444.025 621.863 463.447 625.693 478.5V478.264Z" fill="white"/>
<path d="M531.419 85.9573L528.577 45.6978C527.541 31.0346 508.587 25.9077 500.309 38.052L477.582 71.3956L438.431 61.6579C424.172 58.1113 413.446 74.5473 422.431 86.1768L447.11 118.12L425.754 152.371C417.979 164.841 430.304 180.126 444.137 175.169L482.109 161.561L508.057 192.458C517.509 203.714 535.853 196.724 535.415 182.033L534.214 141.68L571.616 126.528C585.233 121.012 584.244 101.408 570.141 97.2829L531.419 85.9573Z" stroke="#754C9E" stroke-width="17" stroke-linecap="round" stroke-linejoin="round"/>
<path d="M416.239 402.324C413.096 403.603 339.3 432.895 308.393 356.814C306.605 352.412 301.557 350.803 297.785 352.337C293.385 354.128 291.775 359.179 293.308 362.952C294.585 366.095 323.842 439.918 247.786 470.862C243.387 472.652 241.776 477.703 243.309 481.476C244.841 485.248 250.145 487.487 253.917 485.952C257.06 484.673 330.856 455.381 361.763 531.463C363.551 535.864 368.599 537.474 372.371 535.939C376.771 534.149 378.381 529.098 376.848 525.325C375.571 522.181 346.314 448.359 422.37 417.415C426.769 415.625 428.38 410.574 426.847 406.801C425.314 403.028 420.639 400.534 416.239 402.324ZM353.469 489.41C333.45 468.98 309.23 463.447 288.82 463.692C309.247 443.657 314.784 419.424 314.546 399.005C334.565 419.435 358.785 424.968 379.195 424.724C359.652 445.131 354.115 469.364 353.469 489.41Z" fill="#754C9E"/>
<path d="M269.304 234.538C268.855 231.523 266.71 229.031 263.791 228.142L202.105 209.366L274.487 110.358C276.757 107.251 276.459 102.962 273.775 100.201C271.094 97.4441 266.811 97.0184 263.639 99.1925L105.493 207.75C102.991 209.466 101.695 212.465 102.16 215.461C102.623 218.462 104.763 220.925 107.666 221.809L163.298 238.742L85.5837 344.493C83.3119 347.582 83.5935 351.856 86.2467 354.625C87.2121 355.633 88.3857 356.335 89.6458 356.719C91.8533 357.391 94.3157 357.088 96.344 355.726L265.885 242.253C268.422 240.562 269.752 237.556 269.304 234.538ZM124.978 317.56L182.628 239.114C184.144 237.053 184.563 234.382 183.756 231.948C182.947 229.521 181.013 227.632 178.559 226.886L127.961 211.485L234.418 138.406L182.794 209.021C181.285 211.084 180.87 213.753 181.68 216.177C182.489 218.601 184.425 220.486 186.872 221.231L243.26 238.395L124.978 317.56Z" fill="#754C9E"/>
</svg>
