<svg width="168" height="300" viewBox="0 0 168 300" fill="none" xmlns="http://www.w3.org/2000/svg">
<path d="M166.511 130.799C165.204 128.046 162.426 126.286 159.375 126.286H94.8936L135.309 10.4917C136.576 6.8584 135.042 2.84171 131.671 0.9817C128.303 -0.874977 124.081 -0.0349736 121.68 2.96838L1.99848 152.873C0.104433 155.243 -0.262369 158.489 1.0548 161.219C2.37196 163.956 5.13634 165.689 8.17082 165.689H66.3228L22.7697 289.487C21.4959 293.103 23.0098 297.11 26.3544 298.987C27.5715 299.67 28.8987 300 30.2158 300C32.5234 300 34.7909 298.993 36.3348 297.1L165.487 139.176C167.421 136.819 167.818 133.556 166.511 130.799ZM52.6143 252.25L84.9232 160.416C85.7735 158.003 85.3967 155.326 83.9161 153.233C82.4356 151.146 80.0347 149.903 77.4704 149.903H24.5804L105.144 48.992L76.3199 131.579C75.4763 133.992 75.8564 136.666 77.337 138.749C78.8175 140.832 81.2185 142.072 83.7761 142.072H142.718L52.6143 252.25Z" fill="white"/>
</svg>
