<svg width="320" height="320" viewBox="0 0 320 320" fill="none" xmlns="http://www.w3.org/2000/svg">
<path fill-rule="evenodd" clip-rule="evenodd" d="M160 320C248.366 320 320 248.366 320 160C320 71.6344 248.366 0 160 0C71.6344 0 0 71.6344 0 160C0 248.366 71.6344 320 160 320ZM222.895 262L234 260.375L218.73 207.552L229.501 207.496L228.285 57.1008L87.7709 57.9521L87.2206 208.247L101.718 208.169L87 259.929L96.913 261.718L116.894 221.14L201.804 220.016L222.895 262ZM99.6888 194.506L99.4551 79.8746L216.921 78.9324L216.616 162.938L185.06 163.759C185.06 163.759 193.702 193.57 166.896 193.57C153.056 193.57 99.6888 194.506 99.6888 194.506ZM167.156 29.1913L152.947 28L147.469 47.2626L172.27 46.8836L167.156 29.1913ZM154.486 260.406H164.707L169.073 231.678L149.832 232.273L154.486 260.406Z" fill="white"/>
</svg>
