<svg width="320" height="320" viewBox="0 0 320 320" fill="none" xmlns="http://www.w3.org/2000/svg">
<path fill-rule="evenodd" clip-rule="evenodd" d="M160 320C248.366 320 320 248.366 320 160C320 71.6344 248.366 0 160 0C71.6344 0 0 71.6344 0 160C0 248.366 71.6344 320 160 320ZM103.996 59.705C87.3697 60.3717 81.3841 71.701 82.0494 93.0261C82.6569 112.496 84.3716 205.307 84.6671 221.305C84.6953 222.829 84.7105 223.656 84.7108 223.656L239 224.873V86.3614C239 66.3697 225.698 58.3716 215.058 59.0383C209.738 59.3716 186.129 59.3716 161.771 59.3716C137.414 59.3716 112.309 59.3716 103.996 59.705ZM216.442 207.637L169.73 205.579V192.555L216.098 192.965L216.442 207.637ZM118.318 172.423C111.053 172.423 104.305 164.621 104.305 156.298C104.305 147.978 104.305 102.52 104.308 94.7183C104.308 87.4354 106.381 83.2751 118.321 83.2751C124.576 83.2751 143.65 82.9897 161.815 82.7179C178.325 82.4708 194.083 82.235 198.78 82.235C208.642 82.235 215.909 86.9166 216.427 97.8385C216.945 108.763 217.465 148.497 217.465 158.378C217.465 168.263 210.197 171.904 198.778 171.904C192.424 171.904 170.487 172.065 151.021 172.207C135.496 172.321 121.542 172.423 118.318 172.423ZM142.176 114.683V96.6287L129.694 96.0857L127.902 114.683H142.176ZM175.169 148.511H143.454H143.451V140.251L128.874 141.347L129.421 154.107H138.702L140.72 161.785L179.391 161.237V153.011H189.521V139.175H176.26L175.169 148.511ZM191.757 98.7913L178.489 98.2143V116.327L191.34 115.231L191.757 98.7913ZM146.954 121.94L146.434 133.759V133.761H167.597L168.056 97.7585L155.584 97.2154L155.662 121.086L146.954 121.94ZM232.734 262V235.392L91.4173 237.111L90.5608 260.284L232.734 262Z" fill="white"/>
</svg>
