<svg width="320" height="320" viewBox="0 0 320 320" fill="none" xmlns="http://www.w3.org/2000/svg">
<path fill-rule="evenodd" clip-rule="evenodd" d="M160 320C248.366 320 320 248.366 320 160C320 71.6344 248.366 0 160 0C71.6344 0 0 71.6344 0 160C0 248.366 71.6344 320 160 320ZM203.304 192.946L217.159 232.83C260.691 251.428 305.761 235.208 253.467 82.2367L218.628 81L210.054 88.1349L110.344 89.4191L98.8095 81.6659L67.2623 82.7362C10.9177 236.064 64.6096 250.976 108.023 232.093L120.409 192.661L203.304 192.946ZM101.367 145.047L118.775 144.548L119.249 162.528H102.078L102.741 181.958L81.6148 182.386L80.7859 162.623H63.3781L64.0412 146.141L81.2833 145.642V127.163L100.681 126.259L101.367 145.047ZM229.072 186.406C243.283 186.406 242.998 163.431 228.03 163.431C213.062 163.431 212.162 186.406 229.072 186.406ZM126.023 104.616L194.707 104.949C194.707 104.949 195.393 119.219 195.346 125.522C195.346 136.271 189.591 141.218 181.68 141.218C175.753 141.164 168.143 141.028 160.709 140.894C151.716 140.733 142.98 140.576 137.794 140.576C129.812 140.576 125.762 135.391 125.762 125.878C125.762 117.364 126.023 104.616 126.023 104.616ZM206.714 142.027C192.03 142.027 190.799 165.001 207.756 165.001C222.062 165.001 221.635 142.027 206.714 142.027ZM228.03 120.622C213.346 120.622 212.114 143.597 229.072 143.597C243.377 143.597 242.951 120.622 228.03 120.622ZM249.346 142.027C234.662 142.027 233.43 165.001 250.388 165.001C264.693 165.001 264.267 142.027 249.346 142.027Z" fill="white"/>
</svg>
