<svg width="591" height="307" viewBox="0 0 591 307" fill="none" xmlns="http://www.w3.org/2000/svg">
<rect width="591" height="307" fill="url(#paint0_linear)"/>
<path d="M404.774 67.387C404.219 65.8004 402.719 64.7333 401.033 64.7333H321.7C320.796 64.7333 319.927 65.0388 319.221 65.602L299.388 81.4687C299.32 81.5242 299.276 81.5996 299.213 81.6591C299.094 81.7662 298.999 81.8892 298.892 82.0121C298.685 82.2541 298.511 82.508 298.368 82.7896C298.297 82.9324 298.225 83.0673 298.17 83.222C298.035 83.5909 297.959 83.9756 297.94 84.3683C297.936 84.4358 297.9 84.4953 297.9 84.5667V121.429L265.921 35.5823C265.338 34.0274 263.854 33 262.2 33C262.18 33 262.16 33 262.141 33C260.463 33.0278 258.979 34.1027 258.44 35.6934L234.878 105.138C229.086 104.614 223.406 104.4 218.567 104.4C199.416 104.4 167 107.744 167 120.267V255.133C167 267.656 199.416 271 218.567 271C237.718 271 270.133 267.656 270.133 255.133V254.983C279.935 254.768 289.233 254.154 297.9 253.146V267.033C297.9 269.227 299.673 271 301.867 271H381.2C382.299 271 383.29 270.552 384.008 269.834L403.838 250.004C404.584 249.263 405 248.255 405 247.2V68.7H404.984C404.984 68.2597 404.929 67.8194 404.774 67.387ZM323.092 72.6667H389.728L379.812 80.6H313.176L323.092 72.6667ZM218.567 112.333C225.544 112.333 231.748 112.706 237.174 113.301C237.186 113.301 237.194 113.309 237.202 113.309C246.627 114.34 253.001 115.951 256.968 117.403C257.158 117.474 257.357 117.546 257.539 117.617C257.761 117.7 257.968 117.788 258.174 117.871C260.209 118.72 261.542 119.553 262.077 120.271C259.844 123.261 244.215 128.204 218.567 128.204C192.918 128.204 177.29 123.258 175.056 120.267C177.29 117.276 192.918 112.333 218.567 112.333ZM218.567 263.067C192.089 263.067 176.29 257.799 174.933 255.133V129.406C185.758 134.531 205.326 136.133 218.567 136.133C231.807 136.133 251.375 134.531 262.2 129.406V251.111C262.2 251.194 262.244 251.274 262.248 251.357V254.852C260.843 257.799 245.044 263.067 218.567 263.067ZM270.133 247.081V120.267C270.133 119.541 269.994 118.859 269.792 118.196C269.76 118.089 269.729 117.986 269.689 117.883C267.309 111.159 254.961 107.748 242.954 106.034L262.375 48.7953L297.9 144.154V245.197C289.276 246.232 279.967 246.863 270.133 247.081ZM377.233 263.067H305.833V248.688V143.44V88.5333H377.233V263.067ZM385.167 257.458V86.4746L397.067 76.9546V245.558L385.167 257.458Z" fill="white"/>
<defs>
<linearGradient id="paint0_linear" x1="0" y1="0" x2="556.839" y2="359.86" gradientUnits="userSpaceOnUse">
<stop stop-color="#754C9E"/>
<stop offset="1" stop-color="#F26922"/>
</linearGradient>
</defs>
</svg>
