<svg width="320" height="320" viewBox="0 0 320 320" fill="none" xmlns="http://www.w3.org/2000/svg">
<path fill-rule="evenodd" clip-rule="evenodd" d="M160 320C248.366 320 320 248.366 320 160C320 71.6344 248.366 0 160 0C71.6344 0 0 71.6344 0 160C0 248.366 71.6344 320 160 320ZM176.189 145.912C168.25 176.157 185.188 212.998 229.357 212.998C260.395 212.998 277.443 191.182 280.263 167.345L294 167.257L292.633 146.335L279.293 147.352C274.544 125.677 257.564 107 228.155 107C207.301 107 192.333 116.322 183.547 129.438C171.369 119.09 149.833 119.283 138.514 129.624C130.091 116.41 115.479 107 94.6039 107C65.1866 107 47.4906 125.548 42.329 147.126L28.7362 145.316L26 167.452L41.141 167.427C43.9884 191.235 61.8574 213 95.8042 213C136.162 213 152.86 176.122 145.396 145.869C153.617 136.33 169.724 136.137 176.189 145.912ZM94.4021 122.9C45.1784 122.9 42.8046 197.095 95.2401 197.095C143.132 197.095 143.44 122.9 94.4021 122.9ZM227.955 122.9C178.732 122.9 176.358 197.095 228.793 197.095C276.683 197.095 276.994 122.9 227.955 122.9Z" fill="white"/>
</svg>
