<svg width="320" height="320" viewBox="0 0 320 320" fill="none" xmlns="http://www.w3.org/2000/svg">
<path fill-rule="evenodd" clip-rule="evenodd" d="M160 320C248.366 320 320 248.366 320 160C320 71.6344 248.366 0 160 0C71.6344 0 0 71.6344 0 160C0 248.366 71.6344 320 160 320ZM199.388 260.778C217.322 262.245 226.411 256.518 228.059 241.648C228.985 233.283 231.183 216.098 233.666 196.688C237.784 164.489 242.686 126.169 243.861 111.834C245.094 96.8071 237.967 91.6622 229.555 89.6497C228.287 89.3465 226.858 88.7082 226.858 88.7082L224.914 100.524L229.028 112.132L212.439 246.719C212.439 246.719 132.452 238.423 118.284 236.625C102.498 234.625 94.832 230.881 92.902 223.068C114.548 226.198 152.723 231.507 180.416 234.219C194.198 235.569 201.553 228.299 202.685 217.591C203.148 213.217 203.976 205.587 205.004 196.117C208.579 163.174 214.57 107.966 216.034 90.1192C217.268 75.0927 207.103 69.0015 197.544 68.06C158.897 64.2478 95.4029 58 95.4029 58L76.4484 217.987C76.3125 218.53 76.1964 219.09 76.1272 219.677C74.5209 233.351 88.3253 247.089 106.504 249.825C121.633 252.102 158.57 257.44 199.388 260.778ZM167.126 135.582L165.342 149.252L126.877 146.046L128.658 132.377L167.126 135.582ZM187.21 104.72L185.428 118.389L113.001 111.819L117.036 98.0738L187.21 104.72Z" fill="white"/>
</svg>
