<svg width="591" height="307" viewBox="0 0 591 307" fill="none" xmlns="http://www.w3.org/2000/svg">
<rect width="591" height="307" fill="url(#paint0_linear)"/>
<path d="M258.753 33.0004C257.614 32.9877 256.492 33.276 255.504 33.8438L108.498 117.394C108.465 117.406 108.432 117.432 108.399 117.444L108.2 117.571C106.216 118.706 104.994 120.818 105 123.103V158.974C104.994 161.26 106.216 163.372 108.2 164.506L139.779 182.442C141.73 183.54 144.114 183.53 146.056 182.416V182.442L178.652 163.911V188.891C178.654 191.168 179.875 193.269 181.852 194.399L213.431 212.359C215.381 213.457 217.766 213.447 219.707 212.333V212.359L252.304 193.803V218.784C252.297 221.069 253.519 223.182 255.504 224.316L287.058 242.251C289.139 243.436 291.71 243.35 293.706 242.028L325.931 223.72V248.701C325.938 250.982 327.169 253.085 329.156 254.208L360.71 272.168C362.791 273.353 365.362 273.267 367.358 271.944L482.735 206.355C484.712 205.226 485.933 203.124 485.936 200.848V165.299C486.063 162.899 484.824 160.634 482.735 159.445L451.156 141.481C450.232 140.959 449.191 140.679 448.13 140.663C446.993 140.638 445.87 140.922 444.88 141.481L296.559 225.8V204.516L388.022 152.545C390.016 151.417 391.249 149.304 391.247 147.013V111.117H391.222C391.219 108.841 389.998 106.74 388.022 105.61L356.468 87.6749C355.546 87.1453 354.505 86.8544 353.442 86.8316C352.302 86.8189 351.18 87.1072 350.192 87.6749L216.557 163.634L197.828 152.992L293.334 98.714C295.328 97.5862 296.56 95.4727 296.559 93.1822V57.2864H296.534C296.531 55.0099 295.31 52.9088 293.334 51.7793L261.779 33.8439C260.857 33.3142 259.816 33.0234 258.753 33.0005L258.753 33.0004ZM258.654 46.6691L277.359 57.2864L142.905 133.717L124.201 123.074L258.654 46.6691ZM283.858 68.2015V89.4859L149.256 166.015V144.731L283.858 68.2015ZM353.342 100.5L372.047 111.117L222.908 195.908V174.648L353.342 100.5ZM378.546 122.033V143.317L290.209 193.526L271.504 182.884L378.546 122.033ZM117.701 134.014L136.555 144.731V165.991L117.701 155.274V134.014ZM448.031 154.306L466.735 164.949L363.836 223.443L345.131 212.801L448.031 154.306ZM191.353 163.907L210.206 174.623V195.908L191.353 185.191V163.907ZM473.234 175.888V197.148L370.211 255.692V234.433L473.234 175.888ZM265.005 193.824L283.858 204.54V225.825L265.005 215.083V193.824ZM338.632 223.716L357.51 234.433V255.717L338.632 245.001V223.716Z" fill="white"/>
<defs>
<linearGradient id="paint0_linear" x1="0" y1="0" x2="556.839" y2="359.86" gradientUnits="userSpaceOnUse">
<stop stop-color="#754C9E"/>
<stop offset="1" stop-color="#F26922"/>
</linearGradient>
</defs>
</svg>
