<svg width="2760" height="744" viewBox="0 0 2760 744" fill="none" xmlns="http://www.w3.org/2000/svg">
<path d="M57.676 340.279H2.47174V0H57.676V340.279Z" fill="white"/>
<path d="M326.282 340.279H271.077L163.965 116.173V340.279H108.76V0H163.965L271.077 224.93V0H326.282V340.279Z" fill="white"/>
<path d="M0 744V688.797H702V744H0Z" fill="white"/>
<path d="M702 210.924V257.887H372.423V210.924H702Z" fill="white"/>
<path d="M427.627 0V70.0332H702V116.997H427.627V186.206H372.423V0H427.627Z" fill="white"/>
<path d="M156.549 372.412H86.5141V667.375H156.549V372.412Z" fill="white"/>
<path d="M72.507 411.136H2.47174V667.375H72.507V411.136Z" fill="white"/>
<path d="M241.415 372.412H171.38V667.375H241.415V372.412Z" fill="white"/>
<path d="M326.282 411.136H256.247V667.375H326.282V411.136Z" fill="white"/>
<path d="M444.93 332.864H372.423V666.551H444.93V332.864Z" fill="white"/>
<path d="M528.972 298.259H456.465V666.551H528.972V298.259Z" fill="white"/>
<path d="M614.662 298.259H542.155V666.551H614.662V298.259Z" fill="white"/>
<path d="M699.528 322.977H627.021V666.551H699.528V322.977Z" fill="white"/>
<path d="M933.647 0H953.244V128.236H933.647V28.882L862.177 128.236H843.733V0H863.33V99.3539L933.647 0Z" fill="white"/>
<path d="M1086.96 128.234H1068.52V87.7997H1018.95V128.234H1000.5V32.3463H1018.95V73.9363H1068.52V32.3463H1086.96V128.234Z" fill="white"/>
<path d="M1174.57 116.682C1181.48 116.682 1187.25 114.372 1191.86 110.906C1196.47 107.44 1199.93 102.819 1199.93 98.1976H1217.22C1217.22 103.974 1214.91 108.595 1210.3 114.372C1206.84 118.993 1201.08 123.614 1194.16 125.924C1187.25 129.39 1180.33 130.545 1173.41 130.545C1158.43 130.545 1146.9 125.924 1138.83 117.837C1129.61 108.595 1126.15 97.0423 1126.15 82.0237V78.5579C1126.15 69.3156 1128.46 61.2287 1131.92 53.1417C1135.37 46.21 1141.14 40.4336 1148.05 35.8125C1154.97 32.3467 1164.19 30.0361 1173.41 30.0361C1184.94 30.0361 1195.32 33.502 1203.39 39.2784C1211.46 46.2101 1216.07 54.297 1216.07 64.6945H1198.78C1198.78 58.9181 1195.32 53.1417 1190.71 49.6759C1186.1 46.21 1180.33 43.8995 1173.41 43.8995C1164.19 43.8995 1157.28 47.3653 1151.51 53.1417C1146.9 58.9181 1143.44 68.1604 1143.44 78.5579V82.0237C1143.44 93.5765 1145.75 101.663 1151.51 107.44C1157.28 114.372 1165.35 116.682 1174.57 116.682Z" fill="white"/>
<path d="M1332.5 46.2111H1296.76V128.236H1278.32V46.2111H1242.59V33.5031H1332.5V46.2111V46.2111Z" fill="white"/>
<path d="M1433.94 33.5031H1452.38V129.391H1433.94V60.0744L1384.37 129.391H1365.93V33.5031H1384.37V102.82L1433.94 33.5031Z" fill="white"/>
<path d="M1575.73 46.2111H1539.99V128.236H1521.55V46.2111H1485.81V33.5031H1575.73V46.2111V46.2111Z" fill="white"/>
<path d="M1644.89 105.13L1670.25 33.5031H1689.85L1646.04 144.41C1639.13 160.584 1628.75 168.671 1613.77 168.671H1610.31L1603.39 167.515V154.807H1608C1613.77 154.807 1619.53 153.652 1622.99 151.342C1626.45 149.031 1629.9 145.565 1631.06 138.633L1635.67 129.391L1597.63 34.6583H1617.22L1644.89 105.13Z" fill="white"/>
<path d="M1800.51 46.2111H1764.78V128.236H1746.34V46.2111H1710.6V33.5031H1800.51V46.2111V46.2111Z" fill="white"/>
<path d="M931.335 218.349H861.017V256.473H896.752C911.738 256.473 923.266 259.939 932.488 266.87C940.557 273.802 945.168 283.044 945.168 294.597C945.168 306.15 940.557 315.392 932.488 322.324C924.418 329.255 911.738 332.721 897.905 332.721H842.573V204.485H931.335V218.349ZM861.017 270.336V318.858H895.6C904.822 318.858 912.891 316.547 917.502 311.926C923.266 307.305 925.571 301.529 925.571 293.442C925.571 286.51 923.266 280.734 917.502 276.113C912.891 271.492 904.822 270.336 895.6 269.181H861.017V270.336Z" fill="white"/>
<path d="M1052.38 237.987H1070.83V332.72H1052.38V263.403L1002.82 332.72H984.372V236.832H1002.82V306.149L1052.38 237.987Z" fill="white"/>
<path d="M1173.41 263.402C1173.41 258.781 1171.11 255.315 1167.65 253.004C1164.19 250.694 1158.43 249.539 1151.51 249.539C1144.59 249.539 1139.98 250.694 1135.37 254.16C1130.76 257.625 1128.46 261.091 1128.46 264.557H1110.01C1110.01 256.47 1113.47 249.539 1121.54 243.762C1129.61 237.986 1138.83 235.675 1150.36 235.675C1163.04 235.675 1172.26 237.986 1180.33 242.607C1187.25 247.228 1190.7 254.16 1190.7 263.402C1190.7 268.023 1189.55 271.489 1186.09 274.955C1182.64 278.42 1179.18 281.886 1173.41 283.042C1186.09 286.507 1191.86 294.594 1191.86 304.992C1191.86 314.234 1188.4 321.166 1180.33 325.787C1172.26 330.408 1163.04 333.874 1149.21 333.874C1136.53 333.874 1126.15 331.563 1118.08 325.787C1110.01 320.011 1106.55 313.079 1106.55 303.837H1125C1125 308.458 1127.3 311.924 1131.91 315.389C1136.53 318.855 1142.29 320.011 1149.21 320.011C1156.12 320.011 1161.89 318.855 1166.5 315.389C1171.11 313.079 1173.41 308.458 1173.41 303.837C1173.41 298.06 1171.11 294.594 1167.65 292.284C1164.19 289.973 1158.43 288.818 1150.36 288.818H1131.91V274.955H1151.51C1167.65 277.265 1173.41 272.644 1173.41 263.402Z" fill="white"/>
<path d="M1319.81 332.72H1301.37V292.285H1251.8V332.72H1233.36V236.832H1251.8V278.422H1301.37V236.832H1319.81V332.72Z" fill="white"/>
<path d="M1408.58 335.029C1393.59 335.029 1382.07 330.408 1372.85 322.321C1363.62 314.234 1359.01 302.681 1359.01 287.663V284.197C1359.01 274.955 1361.32 265.712 1364.78 258.781C1369.39 251.849 1374 244.917 1382.07 241.452C1388.98 236.83 1397.05 235.675 1406.28 235.675C1420.11 235.675 1431.64 240.296 1438.55 248.383C1446.62 256.47 1450.08 268.023 1450.08 283.042V289.973H1377.46C1377.46 299.216 1380.91 307.302 1386.68 313.079C1392.44 318.855 1400.51 322.321 1409.73 322.321C1416.65 322.321 1421.26 321.166 1425.87 318.855C1430.48 316.545 1433.94 313.079 1437.4 309.613L1448.93 317.7C1439.7 329.253 1427.02 335.029 1408.58 335.029ZM1406.28 249.539C1399.36 249.539 1392.44 251.849 1387.83 256.47C1383.22 261.091 1379.76 268.023 1378.61 276.11H1432.79V274.955C1432.79 266.868 1429.33 259.936 1424.72 255.315C1420.11 251.849 1414.34 249.539 1406.28 249.539Z" fill="white"/>
<path d="M1529.62 321.166C1536.53 321.166 1542.3 318.855 1546.91 315.389C1551.52 311.924 1554.98 307.302 1554.98 302.681H1572.27C1572.27 308.458 1569.96 313.079 1565.35 318.855C1561.89 323.476 1556.13 328.097 1549.21 330.408C1542.3 333.874 1535.38 335.029 1528.46 335.029C1513.48 335.029 1501.95 330.408 1493.88 322.321C1484.66 313.079 1481.2 301.526 1481.2 286.507V284.197C1481.2 274.955 1483.51 266.868 1486.96 258.781C1490.42 251.849 1496.19 246.073 1503.1 241.452C1510.02 237.986 1519.24 235.675 1528.46 235.675C1539.99 235.675 1550.37 239.141 1558.44 244.917C1566.5 251.849 1571.12 259.936 1571.12 270.334H1553.82C1553.82 264.557 1550.37 258.781 1545.75 255.315C1541.14 251.849 1535.38 249.539 1528.46 249.539C1519.24 249.539 1512.32 253.004 1506.56 258.781C1501.95 264.557 1498.49 273.799 1498.49 284.197V287.663C1498.49 299.215 1500.8 307.302 1506.56 313.079C1512.32 318.855 1520.39 321.166 1529.62 321.166Z" fill="white"/>
<path d="M1673.71 332.72C1672.56 330.41 1671.41 326.944 1671.41 322.323C1663.34 330.41 1652.96 333.876 1640.28 333.876C1629.91 333.876 1620.69 331.565 1613.77 325.789C1606.85 320.012 1603.4 314.236 1603.4 304.994C1603.4 294.596 1608.01 287.664 1616.08 281.888C1624.14 276.112 1636.83 273.801 1651.81 273.801H1670.26V265.714C1670.26 259.938 1667.95 255.317 1664.49 251.851C1661.03 248.385 1655.27 247.23 1647.2 247.23C1640.28 247.23 1635.67 248.385 1631.06 251.851C1626.45 255.317 1624.14 258.782 1624.14 262.248H1605.7C1605.7 257.627 1608.01 253.006 1611.46 248.385C1614.92 243.764 1620.69 240.298 1626.45 237.987C1633.37 235.677 1640.28 234.522 1648.35 234.522C1661.03 234.522 1670.26 236.832 1677.17 242.609C1684.09 248.385 1687.55 255.317 1687.55 265.714V309.615C1687.55 318.857 1688.7 325.789 1691 330.41V332.72H1673.71ZM1642.59 321.168C1648.35 321.168 1654.12 320.012 1658.73 317.702C1663.34 315.391 1667.95 311.925 1670.26 307.304V286.509H1655.27C1632.21 286.509 1621.84 292.286 1621.84 303.838C1621.84 308.459 1624.14 313.081 1627.6 315.391C1632.21 318.857 1636.83 321.168 1642.59 321.168Z" fill="white"/>
<path d="M1866.22 237.987H1884.66V332.72H1866.22V263.403L1816.65 332.72H1798.21V236.832H1816.65V306.149L1866.22 237.987Z" fill="white"/>
<path d="M933.647 408.968H953.244V537.204H933.647V437.85L862.177 537.204H843.733V408.968H863.33V508.322L933.647 408.968Z" fill="white"/>
<path d="M1086.96 537.202H1068.52V496.767H1018.95V537.202H1000.5V441.314H1018.95V482.904H1068.52V441.314H1086.96V537.202Z" fill="white"/>
<path d="M1127.31 490.993C1127.31 474.82 1130.77 462.111 1137.69 452.869C1144.6 443.627 1153.83 439.006 1166.51 439.006C1172.27 439.006 1176.88 440.161 1181.49 441.316V402.037H1199.93V443.627C1204.55 441.316 1210.31 440.161 1216.07 440.161C1228.75 440.161 1237.98 444.782 1244.89 454.025C1251.81 463.267 1255.27 475.975 1255.27 493.304C1255.27 507.167 1251.81 518.72 1244.89 526.807C1237.98 534.894 1228.75 539.515 1216.07 539.515C1209.16 539.515 1204.55 538.36 1199.93 537.205V575.329H1181.49V538.36C1176.88 539.515 1172.27 540.67 1166.51 540.67C1154.98 540.67 1144.6 536.049 1137.69 527.962C1130.77 519.875 1127.31 508.323 1127.31 493.304V490.993ZM1145.76 493.304C1145.76 503.702 1148.06 511.788 1152.67 517.565C1157.28 523.341 1163.05 525.652 1171.12 525.652C1174.57 525.652 1178.03 525.652 1181.49 524.496V455.18C1179.19 454.025 1175.73 454.025 1171.12 454.025C1163.05 454.025 1157.28 457.49 1152.67 463.267C1148.06 470.198 1145.76 479.441 1145.76 493.304ZM1236.82 490.993C1236.82 479.441 1234.52 470.198 1229.91 463.267C1225.3 456.335 1218.38 452.869 1210.31 452.869C1205.7 452.869 1202.24 454.025 1199.93 455.18V524.496C1203.39 525.652 1206.85 525.652 1211.46 525.652C1219.53 525.652 1226.45 523.341 1231.06 517.565C1234.52 511.788 1236.82 503.702 1236.82 490.993Z" fill="white"/>
<path d="M1288.69 488.682C1288.69 479.44 1290.99 471.353 1294.45 463.266C1299.06 456.334 1304.83 450.558 1311.74 445.937C1318.66 441.316 1327.88 440.161 1337.1 440.161C1352.09 440.161 1363.62 444.782 1372.84 454.024C1382.06 463.266 1386.67 474.819 1386.67 489.837V490.993C1386.67 500.235 1384.37 508.322 1380.91 516.409C1377.45 523.341 1371.69 529.117 1363.62 533.738C1356.7 538.359 1347.48 539.515 1338.26 539.515C1323.27 539.515 1311.74 534.893 1302.52 525.651C1293.3 516.409 1288.69 504.856 1288.69 488.682ZM1307.13 490.993C1307.13 501.39 1309.44 510.633 1315.2 516.409C1320.97 523.341 1327.88 525.651 1337.1 525.651C1346.33 525.651 1354.4 522.185 1359.01 516.409C1364.77 509.477 1367.08 500.235 1367.08 488.682C1367.08 478.285 1364.77 470.198 1359.01 463.266C1353.24 456.334 1346.33 454.024 1337.1 454.024C1327.88 454.024 1320.97 457.49 1315.2 463.266C1309.44 470.198 1307.13 479.44 1307.13 490.993Z" fill="white"/>
<path d="M1514.63 490.993C1514.63 506.011 1511.18 517.564 1503.11 525.651C1495.04 534.893 1485.82 539.514 1473.14 539.514C1460.45 539.514 1450.08 536.049 1442.01 527.962V574.173H1423.57V442.471H1440.86L1442.01 452.869C1450.08 444.782 1460.45 440.161 1473.14 440.161C1485.82 440.161 1496.19 444.782 1504.26 452.869C1512.33 462.111 1515.79 473.664 1515.79 488.682V490.993H1514.63ZM1496.19 488.682C1496.19 478.285 1493.88 469.042 1488.12 463.266C1483.51 457.49 1475.44 454.024 1467.37 454.024C1455.84 454.024 1447.77 458.645 1442.01 466.732V512.943C1447.77 522.185 1455.84 525.651 1467.37 525.651C1476.59 525.651 1483.51 522.185 1488.12 516.409C1493.88 510.633 1496.19 501.39 1496.19 488.682Z" fill="white"/>
<path d="M1613.77 516.409L1650.66 442.471H1673.71V538.359H1655.27V469.042L1620.68 538.359H1608L1572.27 466.732V538.359H1553.82V442.471H1578.03L1613.77 516.409Z" fill="white"/>
<path d="M1784.38 537.206C1783.23 534.895 1782.07 531.429 1782.07 526.808C1774 534.895 1763.63 538.361 1750.95 538.361C1740.57 538.361 1731.35 536.05 1724.44 530.274C1717.52 524.498 1714.06 518.721 1714.06 509.479C1714.06 499.081 1718.67 492.15 1726.74 486.373C1734.81 480.597 1747.49 478.286 1762.48 478.286H1780.92V470.199C1780.92 464.423 1778.62 459.802 1775.16 456.336C1771.7 452.87 1765.93 451.715 1757.87 451.715C1750.95 451.715 1746.34 452.87 1741.73 456.336C1737.12 459.802 1734.81 463.268 1734.81 466.734H1716.37C1716.37 462.112 1718.67 457.491 1722.13 452.87C1725.59 448.249 1731.35 444.783 1737.12 442.473C1744.03 440.162 1750.95 439.007 1759.02 439.007C1771.7 439.007 1780.92 441.318 1787.84 447.094C1794.75 452.87 1798.21 459.802 1798.21 470.199V514.1C1798.21 523.342 1799.36 530.274 1801.67 534.895V536.05H1784.38V537.206ZM1753.25 525.653C1759.02 525.653 1764.78 524.498 1769.39 522.187C1774 519.876 1778.62 516.411 1780.92 511.789V492.15H1765.93C1742.88 492.15 1732.5 497.926 1732.5 509.479C1732.5 514.1 1734.81 518.721 1738.27 521.032C1742.88 523.342 1747.49 525.653 1753.25 525.653Z" fill="white"/>
<path d="M1844.32 442.471H1862.76V524.496H1912.33V442.471H1930.77V524.496H1943.45L1941.15 566.086H1925.01V537.204H1844.32V442.471Z" fill="white"/>
<path d="M2047.2 442.471H2065.65V538.359H2047.2V469.042L1997.63 538.359H1979.19V442.471H1997.63V511.788L2047.2 442.471Z" fill="white"/>
<path d="M2104.84 488.682C2104.84 479.44 2107.14 471.353 2110.6 463.266C2115.21 456.334 2120.98 450.558 2127.89 445.937C2134.81 441.316 2144.03 440.161 2153.25 440.161C2168.24 440.161 2179.77 444.782 2188.99 454.024C2198.21 463.266 2202.82 474.819 2202.82 489.837V490.993C2202.82 500.235 2200.52 508.322 2197.06 516.409C2193.6 523.341 2187.84 529.117 2179.77 533.738C2172.85 538.359 2163.63 539.515 2154.41 539.515C2139.42 539.515 2127.89 534.893 2118.67 525.651C2109.45 516.409 2104.84 504.856 2104.84 488.682ZM2123.28 490.993C2123.28 501.39 2125.59 510.633 2131.35 516.409C2137.11 523.341 2144.03 525.651 2153.25 525.651C2162.48 525.651 2170.54 522.185 2175.16 516.409C2180.92 509.477 2183.22 500.235 2183.22 488.682C2183.22 478.285 2180.92 470.198 2175.16 463.266C2169.39 456.334 2162.48 454.024 2153.25 454.024C2144.03 454.024 2137.11 457.49 2131.35 463.266C2125.59 470.198 2123.28 479.44 2123.28 490.993Z" fill="white"/>
<path d="M2328.47 537.202H2310.03V496.767H2260.46V537.202H2242.02V441.314H2260.46V482.904H2310.03V441.314H2328.47V537.202Z" fill="white"/>
<path d="M2459.89 537.202H2441.45V496.767H2391.88V537.202H2373.43V441.314H2391.88V482.904H2441.45V441.314H2459.89V537.202Z" fill="white"/>
<path d="M2523.29 474.817H2550.95C2563.63 474.817 2572.86 478.283 2579.77 482.904C2586.69 488.68 2590.15 495.612 2590.15 506.01C2590.15 515.252 2586.69 523.339 2579.77 529.115C2572.86 534.892 2562.48 537.202 2549.8 537.202H2503.69V441.314H2522.13V474.817H2523.29ZM2523.29 488.68V524.494H2550.95C2557.87 524.494 2563.63 523.339 2567.09 519.873C2570.55 516.407 2572.86 512.941 2572.86 507.165C2572.86 501.388 2570.55 497.923 2567.09 494.457C2563.63 490.991 2557.87 489.836 2552.11 488.68H2523.29ZM2629.34 537.202H2610.9V441.314H2629.34V537.202Z" fill="white"/>
<path d="M2712.34 477.129L2736.55 442.471H2758.45L2722.72 489.837L2759.61 538.359H2738.86L2713.5 502.545L2688.14 538.359H2666.23L2703.12 489.837L2667.39 442.471H2688.14L2712.34 477.129Z" fill="white"/>
<path d="M942.868 627.316H896.758V741.689H878.314V627.316H832.204V613.453H944.02V627.316H942.868Z" fill="white"/>
<path d="M1010.88 744C995.896 744 984.369 739.379 975.147 731.292C965.925 723.205 961.313 711.652 961.313 696.634V693.168C961.313 683.925 963.619 674.683 967.077 667.752C971.688 660.82 976.299 653.888 984.369 650.422C991.285 645.801 999.354 644.646 1008.58 644.646C1022.41 644.646 1033.94 649.267 1040.85 657.354C1048.92 665.441 1052.38 676.994 1052.38 692.012V698.944H979.758C979.758 708.186 983.216 716.273 988.98 722.05C994.743 727.826 1002.81 731.292 1012.03 731.292C1018.95 731.292 1023.56 730.137 1028.17 727.826C1032.78 725.516 1036.24 722.05 1039.7 718.584L1051.23 726.671C1042.01 738.224 1028.17 744 1010.88 744ZM1008.58 658.509C1001.66 658.509 994.743 660.82 990.132 665.441C985.521 670.062 982.063 676.994 980.91 685.081H1035.09V683.926C1035.09 675.839 1031.63 668.907 1027.02 664.286C1022.41 660.82 1015.49 658.509 1008.58 658.509Z" fill="white"/>
<path d="M1123.84 681.615L1148.05 646.956H1169.95L1134.22 694.323L1171.11 742.844H1150.36L1125 707.031L1099.64 742.844H1077.73L1114.62 694.323L1078.89 646.956H1099.64L1123.84 681.615Z" fill="white"/>
<path d="M1291 741.691H1272.56V701.256H1222.99V741.691H1204.54V645.803H1222.99V687.393H1272.56V645.803H1291V741.691Z" fill="white"/>
<path d="M1330.19 693.168C1330.19 683.925 1332.5 675.839 1335.96 667.752C1340.57 660.82 1346.33 655.044 1353.25 650.422C1360.16 645.801 1369.39 644.646 1378.61 644.646C1393.59 644.646 1405.12 649.267 1414.34 658.509C1423.57 667.752 1428.18 679.304 1428.18 694.323V695.478C1428.18 704.721 1425.87 712.807 1422.41 720.894C1418.95 727.826 1413.19 733.603 1405.12 738.224C1398.2 742.845 1388.98 744 1379.76 744C1364.77 744 1353.25 739.379 1344.03 730.137C1334.8 720.894 1330.19 709.342 1330.19 693.168ZM1348.64 695.478C1348.64 705.876 1350.94 715.118 1356.71 720.894C1362.47 727.826 1369.39 730.137 1378.61 730.137C1387.83 730.137 1395.9 726.671 1400.51 720.894C1406.27 713.963 1408.58 704.721 1408.58 693.168C1408.58 682.77 1406.27 674.683 1400.51 667.752C1394.75 660.82 1387.83 658.509 1378.61 658.509C1369.39 658.509 1362.47 661.975 1356.71 667.752C1350.94 673.528 1348.64 682.77 1348.64 695.478Z" fill="white"/>
<path d="M1552.67 645.803V741.691H1534.23V659.666H1497.34L1495.03 695.48C1493.88 711.654 1490.42 723.206 1485.81 731.293C1481.2 738.225 1473.13 741.691 1461.6 742.846H1454.69V728.983H1460.45C1466.22 727.828 1470.83 725.517 1473.13 719.741C1475.44 713.964 1477.74 703.567 1477.74 688.548L1480.05 648.113H1552.67V645.803Z" fill="white"/>
<path d="M1590.71 693.168C1590.71 683.925 1593.02 675.839 1596.48 667.752C1601.09 660.82 1606.85 655.044 1613.77 650.422C1620.68 645.801 1629.91 644.646 1639.13 644.646C1654.11 644.646 1665.64 649.267 1674.86 658.509C1684.09 667.752 1688.7 679.304 1688.7 694.323V695.478C1688.7 704.721 1686.39 712.807 1682.93 720.894C1679.47 727.826 1673.71 733.603 1665.64 738.224C1658.72 742.845 1649.5 744 1640.28 744C1625.3 744 1613.77 739.379 1604.55 730.137C1595.32 720.894 1590.71 709.342 1590.71 693.168ZM1609.16 695.478C1609.16 705.876 1611.46 715.118 1617.23 720.894C1622.99 727.826 1629.91 730.137 1639.13 730.137C1648.35 730.137 1656.42 726.671 1661.03 720.894C1666.79 713.963 1669.1 704.721 1669.1 693.168C1669.1 682.77 1666.79 674.683 1661.03 667.752C1655.27 660.82 1648.35 658.509 1639.13 658.509C1629.91 658.509 1622.99 661.975 1617.23 667.752C1612.61 673.528 1609.16 682.77 1609.16 695.478Z" fill="white"/>
<path d="M1795.9 659.666H1746.34V741.691H1727.89V645.803H1795.9V659.666Z" fill="white"/>
<path d="M1896.19 645.803H1914.64V741.691H1896.19V672.374L1846.62 741.691H1828.18V645.803H1846.62V715.119L1896.19 645.803Z" fill="white"/>
<path d="M2027.6 645.801H2046.05V741.689H2027.6V672.373L1978.04 741.689H1959.59V645.801H1978.04V715.118L2027.6 645.801ZM2032.22 611.143C2032.22 618.074 2029.91 623.851 2024.15 628.472C2018.38 633.093 2011.47 635.404 2002.24 635.404C1993.02 635.404 1986.1 633.093 1980.34 628.472C1974.58 623.851 1972.27 618.074 1972.27 611.143H1987.26C1987.26 615.764 1988.41 618.075 1990.72 620.385C1993.02 622.696 1996.48 623.851 2002.24 623.851C2006.85 623.851 2010.31 622.696 2012.62 620.385C2014.92 618.075 2016.08 614.609 2016.08 611.143H2032.22Z" fill="white"/>
</svg>
