<svg width="702" height="800" viewBox="0 0 702 800" fill="none" xmlns="http://www.w3.org/2000/svg">
<path d="M57.6759 340.279H2.47168V0H57.6759V340.279Z" fill="white"/>
<path d="M326.282 340.279H271.078L163.965 116.173V340.279H108.761V0H163.965L271.078 224.93V0H326.282V340.279Z" fill="white"/>
<path d="M0 744V688.797H702V744H0Z" fill="white"/>
<path d="M702 210.924V257.887H372.423V210.924H702Z" fill="white"/>
<path d="M427.627 0V70.0332H702V116.997H427.627V186.206H372.423V0H427.627Z" fill="white"/>
<path d="M156.549 372.412H86.5137V667.375H156.549V372.412Z" fill="white"/>
<path d="M72.5069 411.136H2.47168V667.375H72.5069V411.136Z" fill="white"/>
<path d="M241.415 372.412H171.38V667.375H241.415V372.412Z" fill="white"/>
<path d="M326.281 411.136H256.246V667.375H326.281V411.136Z" fill="white"/>
<path d="M444.93 332.864H372.423V666.551H444.93V332.864Z" fill="white"/>
<path d="M528.972 298.259H456.465V666.551H528.972V298.259Z" fill="white"/>
<path d="M614.662 298.259H542.155V666.551H614.662V298.259Z" fill="white"/>
<path d="M699.528 322.977H627.021V666.551H699.528V322.977Z" fill="white"/>
<path d="M195.944 754.087L185.621 764.398V797.829H149V631H185.621V719.57L189.315 714.686L216.917 680.387H260.818L219.633 728.688L263.534 797.829H221.589L195.944 754.087Z" fill="#754C9E"/>
<path d="M309.066 797.829H272.336V680.387H309.066V797.829ZM270.163 650.103C270.163 644.893 272.047 640.624 275.814 637.295C279.581 633.967 284.471 632.303 290.484 632.303C296.497 632.303 301.387 633.967 305.154 637.295C308.921 640.624 310.804 644.893 310.804 650.103C310.804 655.313 308.921 659.583 305.154 662.911C301.387 666.24 296.497 667.904 290.484 667.904C284.471 667.904 279.581 666.24 275.814 662.911C272.047 659.583 270.163 655.313 270.163 650.103Z" fill="#754C9E"/>
<path d="M327.104 738.24C327.104 719.643 331.125 704.99 339.166 694.28C347.208 683.571 358.437 678.216 372.853 678.216C383.357 678.216 392.196 682.34 399.368 690.59V631.109H436.097V797.829H403.171L401.324 785.238C393.789 795.079 384.227 800 372.636 800C358.654 800 347.57 794.645 339.384 783.936C331.197 773.226 327.104 757.994 327.104 738.24ZM363.725 740.519C363.725 761.359 369.81 771.779 381.981 771.779C390.095 771.779 395.89 768.378 399.368 761.576V716.857C396.035 709.91 390.312 706.437 382.198 706.437C370.897 706.437 364.775 715.554 363.834 733.789L363.725 740.519Z" fill="#754C9E"/>
<path d="M518.466 764.832C518.466 761.721 516.836 759.224 513.576 757.343C510.316 755.462 504.122 753.508 494.994 751.482C485.866 749.456 478.332 746.814 472.391 743.558C466.451 740.23 461.923 736.213 458.808 731.51C455.693 726.806 454.136 721.416 454.136 715.337C454.136 704.555 458.591 695.691 467.501 688.744C476.412 681.725 488.076 678.216 502.492 678.216C517.995 678.216 530.456 681.725 539.873 688.744C549.291 695.763 554 704.99 554 716.423H517.271C517.271 707.016 512.308 702.312 502.383 702.312C498.544 702.312 495.32 703.398 492.712 705.568C490.104 707.667 488.8 710.308 488.8 713.492C488.8 716.748 490.394 719.389 493.581 721.416C496.769 723.442 501.84 725.106 508.795 726.408C515.822 727.711 521.98 729.267 527.268 731.076C544.944 737.154 553.783 748.045 553.783 763.747C553.783 774.456 549.001 783.176 539.439 789.906C529.948 796.635 517.633 800 502.492 800C492.422 800 483.439 798.191 475.543 794.573C467.646 790.955 461.489 786.034 457.07 779.811C452.65 773.588 450.441 767.039 450.441 760.165H484.671C484.816 765.592 486.627 769.572 490.104 772.105C493.581 774.565 498.037 775.795 503.47 775.795C508.469 775.795 512.2 774.782 514.663 772.756C517.198 770.73 518.466 768.089 518.466 764.832Z" fill="#754C9E"/>
</svg>
