<svg width="702" height="800" viewBox="0 0 702 800" fill="none" xmlns="http://www.w3.org/2000/svg">
<path d="M57.676 340.279H2.47174V0H57.676V340.279Z" fill="white"/>
<path d="M326.282 340.279H271.077L163.965 116.173V340.279H108.76V0H163.965L271.077 224.93V0H326.282V340.279Z" fill="white"/>
<path d="M0 744V688.797H702V744H0Z" fill="white"/>
<path d="M702 210.924V257.887H372.423V210.924H702Z" fill="white"/>
<path d="M427.627 0V70.0332H702V116.997H427.627V186.206H372.423V0H427.627Z" fill="white"/>
<path d="M156.549 372.412H86.5141V667.375H156.549V372.412Z" fill="white"/>
<path d="M72.507 411.136H2.47174V667.375H72.507V411.136Z" fill="white"/>
<path d="M241.415 372.412H171.38V667.375H241.415V372.412Z" fill="white"/>
<path d="M326.282 411.136H256.247V667.375H326.282V411.136Z" fill="white"/>
<path d="M444.93 332.864H372.423V666.551H444.93V332.864Z" fill="white"/>
<path d="M528.972 298.259H456.465V666.551H528.972V298.259Z" fill="white"/>
<path d="M614.662 298.259H542.155V666.551H614.662V298.259Z" fill="white"/>
<path d="M699.528 322.977H627.021V666.551H699.528V322.977Z" fill="white"/>
<path d="M626.238 150.799C624.931 148.046 622.153 146.286 619.102 146.286H554.621L595.036 30.4917C596.304 26.8584 594.77 22.8417 591.398 20.9817C588.03 19.125 583.809 19.965 581.408 22.9684L461.726 172.873C459.832 175.243 459.465 178.489 460.782 181.219C462.099 183.956 464.864 185.689 467.898 185.689H526.05L482.497 309.487C481.223 313.103 482.737 317.11 486.082 318.987C487.299 319.67 488.626 320 489.943 320C492.251 320 494.518 318.993 496.062 317.1L625.215 159.176C627.149 156.819 627.545 153.556 626.238 150.799ZM512.342 272.25L544.651 180.416C545.501 178.003 545.124 175.326 543.644 173.233C542.163 171.146 539.762 169.903 537.198 169.903H484.308L564.872 68.992L536.047 151.579C535.204 153.992 535.584 156.666 537.065 158.749C538.545 160.832 540.946 162.072 543.504 162.072H602.446L512.342 272.25Z" fill="#754C9E"/>
<path d="M195.944 754.087L185.621 764.398V797.829H149V631H185.621V719.57L189.315 714.686L216.917 680.387H260.818L219.633 728.688L263.534 797.829H221.589L195.944 754.087Z" fill="#754C9E"/>
<path d="M309.066 797.829H272.336V680.387H309.066V797.829ZM270.163 650.103C270.163 644.893 272.047 640.624 275.814 637.295C279.581 633.967 284.471 632.303 290.484 632.303C296.497 632.303 301.387 633.967 305.154 637.295C308.921 640.624 310.804 644.893 310.804 650.103C310.804 655.313 308.921 659.583 305.154 662.911C301.387 666.24 296.497 667.904 290.484 667.904C284.471 667.904 279.581 666.24 275.814 662.911C272.047 659.583 270.163 655.313 270.163 650.103Z" fill="#754C9E"/>
<path d="M327.104 738.24C327.104 719.643 331.125 704.99 339.166 694.28C347.208 683.571 358.437 678.216 372.853 678.216C383.357 678.216 392.196 682.34 399.368 690.59V631.109H436.097V797.829H403.171L401.324 785.238C393.789 795.079 384.227 800 372.636 800C358.654 800 347.57 794.645 339.384 783.936C331.197 773.226 327.104 757.994 327.104 738.24ZM363.725 740.519C363.725 761.359 369.81 771.779 381.981 771.779C390.095 771.779 395.89 768.378 399.368 761.576V716.857C396.035 709.91 390.312 706.437 382.198 706.437C370.897 706.437 364.775 715.554 363.834 733.789L363.725 740.519Z" fill="#754C9E"/>
<path d="M518.466 764.832C518.466 761.721 516.836 759.224 513.576 757.343C510.316 755.462 504.122 753.508 494.994 751.482C485.866 749.456 478.332 746.814 472.391 743.558C466.451 740.23 461.923 736.213 458.808 731.51C455.693 726.806 454.136 721.416 454.136 715.337C454.136 704.555 458.591 695.691 467.501 688.744C476.412 681.725 488.076 678.216 502.492 678.216C517.995 678.216 530.456 681.725 539.873 688.744C549.291 695.763 554 704.99 554 716.423H517.271C517.271 707.016 512.308 702.312 502.383 702.312C498.544 702.312 495.32 703.398 492.712 705.568C490.104 707.667 488.8 710.308 488.8 713.492C488.8 716.748 490.394 719.389 493.581 721.416C496.769 723.442 501.84 725.106 508.795 726.408C515.822 727.711 521.98 729.267 527.268 731.076C544.944 737.154 553.783 748.045 553.783 763.747C553.783 774.456 549.001 783.176 539.439 789.906C529.948 796.635 517.633 800 502.492 800C492.422 800 483.439 798.191 475.543 794.573C467.646 790.955 461.489 786.034 457.07 779.811C452.65 773.588 450.441 767.039 450.441 760.165H484.671C484.816 765.592 486.627 769.572 490.104 772.105C493.581 774.565 498.037 775.795 503.47 775.795C508.469 775.795 512.2 774.782 514.663 772.756C517.198 770.73 518.466 768.089 518.466 764.832Z" fill="#754C9E"/>
<path d="M439.227 485.426C445.916 541.223 510.271 601.532 576.812 593.555" stroke="#754C9E" stroke-width="17" stroke-linecap="round"/>
<path d="M535.269 456.687C516.236 480.905 502.835 497.956 498.514 503.454" stroke="#754C9E" stroke-width="17" stroke-linecap="round"/>
<path d="M581.842 493.289C562.809 517.507 549.408 534.558 545.087 540.056" stroke="#754C9E" stroke-width="17" stroke-linecap="round"/>
<path d="M246.66 344.881C243.258 345.596 163.517 361.651 146.209 279.331C145.207 274.569 140.41 272.026 136.328 272.884C131.566 273.885 129.023 278.682 129.881 282.764C130.596 286.166 146.651 365.908 64.3315 383.216C59.5692 384.217 57.0258 389.014 57.884 393.096C58.7423 397.178 63.6825 400.402 67.7645 399.544C71.1661 398.829 150.908 382.773 168.216 465.093C169.217 469.855 174.014 472.399 178.096 471.541C182.859 470.539 185.402 465.742 184.544 461.66C183.829 458.258 167.773 378.517 250.093 361.209C254.855 360.207 257.399 355.41 256.541 351.328C255.682 347.246 251.422 343.88 246.66 344.881ZM167.511 421.196C151.047 396.952 127.634 386.956 107.011 383.478C131.255 367.014 141.251 343.6 144.729 322.977C161.193 347.222 184.607 357.217 205.23 360.696C181.809 377.697 171.813 401.111 167.511 421.196Z" fill="#754C9E"/>
</svg>
