<svg width="591" height="307" viewBox="0 0 591 307" fill="none" xmlns="http://www.w3.org/2000/svg">
<rect width="591" height="307" fill="url(#paint0_linear)"/>
<path d="M406.275 133.121C410.253 129.143 416.713 129.153 420.684 133.124C424.664 137.104 424.643 143.578 420.688 147.534L303.729 264.492C299.751 268.47 293.292 268.46 289.32 264.489C285.34 260.509 285.361 254.035 289.317 250.079L406.275 133.121ZM380.944 210.336L420.688 250.079C424.66 254.051 424.664 260.509 420.684 264.489C416.713 268.46 410.253 268.47 406.275 264.492L366.532 224.749L380.944 210.336ZM343.473 172.864L329.06 187.277L289.317 147.534C285.345 143.562 285.34 137.104 289.32 133.124C293.292 129.153 299.751 129.143 303.729 133.121L343.473 172.864ZM222.454 261.131L184.645 198.365C179.993 190.643 168.929 184.389 159.927 184.389C143.864 184.389 142 178.587 142 171.506C142 164.424 151.168 159.931 160.178 159.931H173.731C182.754 159.931 193.812 166.183 198.457 173.895L213.294 198.526C217.934 206.229 223.521 205.426 225.759 196.711L262.219 54.779C264.457 46.0701 273.569 39 282.569 39H432.704C441.696 39 449 46.2976 449 55.2996V60.6799C449 69.6791 441.696 76.9795 432.686 76.9795C417.741 76.9795 425.744 62.5622 408.222 63.4579H301.563C292.535 63.4579 283.427 70.5221 281.189 79.2362L234.926 259.329C232.689 268.035 227.104 268.85 222.454 261.131Z" fill="white"/>
<defs>
<linearGradient id="paint0_linear" x1="0" y1="0" x2="556.839" y2="359.86" gradientUnits="userSpaceOnUse">
<stop stop-color="#754C9E"/>
<stop offset="1" stop-color="#F26922"/>
</linearGradient>
</defs>
</svg>
