<svg width="591" height="307" viewBox="0 0 591 307" fill="none" xmlns="http://www.w3.org/2000/svg">
<rect width="591" height="307" fill="url(#paint0_linear)"/>
<path d="M344.324 111.754L353.349 112.757C355.104 113.008 356.859 111.754 357.11 109.748L360.119 85.4288L364.381 88.4374C368.392 91.1953 370.9 95.9589 370.9 100.723V126.546H360.871C359.116 126.546 357.361 128.051 357.361 130.056V137.076H395.219V130.056C395.219 128.051 393.715 126.546 391.709 126.546H382.683V100.723C382.683 91.9474 378.421 83.6737 371.15 78.6594L361.623 71.8901L365.133 38.7954C365.384 37.0404 364.13 35.2854 362.124 35.0347L353.099 34.0318C351.344 33.7811 349.589 35.0347 349.338 37.0404L341.315 108.244C341.315 109.999 342.569 111.754 344.324 111.754Z" fill="white"/>
<path d="M235.262 87.4345C249.662 87.4345 261.336 75.7605 261.336 61.3599C261.336 46.9593 249.662 35.2853 235.262 35.2853C220.861 35.2853 209.187 46.9593 209.187 61.3599C209.187 75.7605 220.861 87.4345 235.262 87.4345Z" fill="white"/>
<path d="M306.465 181.704C305.713 175.687 300.699 171.174 294.681 171.174H264.094L261.085 129.054C269.61 134.068 279.388 137.076 289.416 137.076H310.978C316.494 137.076 321.007 132.564 321.007 127.048C321.007 121.532 316.494 117.019 310.978 117.019H289.416C282.647 117.019 275.878 115.013 270.111 111.253L250.305 98.2153C246.544 95.7082 242.031 94.2039 237.267 94.2039H233.507C226.486 94.2039 219.968 97.2125 215.455 102.478C210.942 107.743 208.936 114.763 209.939 121.783L219.717 184.963C220.72 190.73 225.484 194.992 231.501 194.992H283.901L290.921 260.178C291.673 266.196 296.687 270.709 302.704 270.709C303.206 270.709 303.457 270.709 303.958 270.709C310.477 269.956 315.24 264.19 314.488 257.671L306.465 181.704Z" fill="white"/>
<path d="M268.106 204.77H227.991C218.965 204.77 211.444 198.251 209.939 189.476L199.66 122.535C198.908 118.273 194.896 115.264 190.634 116.016C186.372 116.768 183.363 120.78 184.115 125.042L194.395 191.733C196.902 208.28 211.193 220.565 227.991 220.565H268.106C272.368 220.565 276.129 217.055 276.129 212.542C276.129 208.029 272.368 204.77 268.106 204.77Z" fill="white"/>
<path d="M397.978 146.353H288.415C284.152 146.353 280.392 149.863 280.392 154.376C280.392 158.638 283.902 162.399 288.415 162.399H357.111V256.668H341.065C336.803 256.668 333.042 260.179 333.042 264.691C333.042 268.954 336.552 272.714 341.065 272.714H397.978C402.24 272.714 406.001 269.204 406.001 264.691V154.376C406.001 149.863 402.491 146.353 397.978 146.353Z" fill="white"/>
<defs>
<linearGradient id="paint0_linear" x1="0" y1="0" x2="556.839" y2="359.86" gradientUnits="userSpaceOnUse">
<stop stop-color="#754C9E"/>
<stop offset="1" stop-color="#F26922"/>
</linearGradient>
</defs>
</svg>
