<svg width="591" height="307" viewBox="0 0 591 307" fill="none" xmlns="http://www.w3.org/2000/svg">
<rect width="591" height="307" fill="url(#paint0_linear)"/>
<path d="M33 99.3935H41.0898C43.3572 99.3935 45.0852 99.9401 46.274 101.033C47.4847 102.126 48.09 103.613 48.09 105.493C48.09 106.805 47.7598 107.854 47.0994 108.641C46.4611 109.406 45.5365 109.964 44.3258 110.314V110.511C45.7566 110.86 46.8573 111.472 47.6278 112.347C48.4202 113.221 48.8165 114.435 48.8165 115.987C48.8165 117.911 48.2001 119.441 46.9674 120.578C45.7566 121.715 44.0506 122.283 41.8493 122.283H33V99.3935ZM40.3304 118.84C41.5191 118.84 42.3886 118.643 42.939 118.25C43.4893 117.856 43.7645 117.135 43.7645 116.085V115.134C43.7645 114.085 43.4893 113.364 42.939 112.97C42.3886 112.577 41.5191 112.38 40.3304 112.38H37.8209V118.84H40.3304ZM39.703 109.1C40.8697 109.1 41.7172 108.915 42.2455 108.543C42.7739 108.149 43.038 107.45 43.038 106.444V105.46C43.038 104.455 42.7739 103.766 42.2455 103.394C41.7172 103.023 40.8697 102.837 39.703 102.837H37.8209V109.1H39.703Z" fill="white"/>
<path d="M52.898 122.283V99.3935H67.6249V103.427H57.851V108.674H67.2947V112.708H57.851V118.25H67.6249V122.283H52.898Z" fill="white"/>
<path d="M83.6266 119.037H83.3294C83.1313 119.518 82.8891 119.977 82.6029 120.414C82.3168 120.851 81.9646 121.245 81.5463 121.595C81.1281 121.923 80.6328 122.185 80.0604 122.382C79.5101 122.579 78.8827 122.677 78.1783 122.677C77.0556 122.677 76.054 122.415 75.1735 121.89C74.315 121.365 73.5885 120.6 72.9942 119.594C72.3998 118.589 71.9486 117.364 71.6404 115.921C71.3542 114.479 71.2111 112.85 71.2111 111.035C71.2111 107.144 71.9265 104.17 73.3574 102.115C74.7883 100.038 77.0006 99 79.9944 99C81.1831 99 82.2287 99.164 83.1313 99.4919C84.0338 99.798 84.8043 100.246 85.4426 100.836C86.103 101.405 86.6424 102.094 87.0606 102.902C87.4789 103.711 87.8091 104.608 88.0512 105.591L83.4284 106.706C83.2964 106.226 83.1423 105.766 82.9662 105.329C82.8121 104.87 82.6029 104.466 82.3388 104.116C82.0746 103.766 81.7444 103.493 81.3482 103.296C80.952 103.077 80.4677 102.968 79.8953 102.968C78.6406 102.968 77.749 103.482 77.2207 104.509C76.7144 105.537 76.4613 106.98 76.4613 108.838V112.577C76.4613 114.435 76.7364 115.921 77.2868 117.036C77.8591 118.151 78.8607 118.709 80.2916 118.709C81.4142 118.709 82.2507 118.381 82.8011 117.725C83.3514 117.069 83.6266 116.228 83.6266 115.2V113.528H79.6972V110.051H88.0512V122.283H83.6266V119.037Z" fill="white"/>
<path d="M92.3309 122.283V118.643H97.2838V103.034H92.3309V99.3935H107.19V103.034H102.237V118.643H107.19V122.283H92.3309Z" fill="white"/>
<path d="M116.257 107.067H115.894V122.283H111.668V99.3935H117.611L122.861 114.61H123.224V99.3935H127.451V122.283H121.507L116.257 107.067Z" fill="white"/>
<path d="M71.8385 164.642L70.4186 141.752H74.6782L75.3386 155.46L75.5367 159.788H75.8339L77.8151 146.736H82.2727L84.2539 159.788H84.5511L85.4096 141.752H89.5041L88.0842 164.642H81.8105L80.1265 152.016H79.7963L78.1122 164.642H71.8385Z" fill="white"/>
<path d="M92.2979 160.87H96.2272V151.491H92.2979V147.72H101.114V152.508H101.345C101.499 151.896 101.708 151.306 101.973 150.737C102.259 150.147 102.611 149.633 103.029 149.196C103.47 148.737 103.998 148.376 104.614 148.114C105.231 147.851 105.957 147.72 106.794 147.72H108.412V152.18H104.779C103.569 152.18 102.655 152.541 102.039 153.262C101.422 153.962 101.114 154.826 101.114 155.853V160.87H106.728V164.642H92.2979V160.87Z" fill="white"/>
<path d="M120.616 145.556C119.515 145.556 118.745 145.337 118.305 144.9C117.886 144.441 117.677 143.894 117.677 143.26V142.309C117.677 141.653 117.886 141.107 118.305 140.67C118.745 140.232 119.515 140.014 120.616 140.014C121.717 140.014 122.476 140.232 122.894 140.67C123.335 141.107 123.555 141.653 123.555 142.309V143.26C123.555 143.894 123.335 144.441 122.894 144.9C122.476 145.337 121.717 145.556 120.616 145.556ZM112.757 160.87H118.172V151.491H112.757V147.72H123.059V160.87H128.078V164.642H112.757V160.87Z" fill="white"/>
<path d="M140.679 164.642C138.918 164.642 137.608 164.183 136.75 163.264C135.891 162.346 135.462 161.177 135.462 159.755V151.491H130.839V147.72H133.844C134.57 147.72 135.088 147.578 135.396 147.294C135.704 147.01 135.858 146.485 135.858 145.72V141.752H140.349V147.72H146.986V151.491H140.349V160.87H146.986V164.642H140.679Z" fill="white"/>
<path d="M159.62 165.035C156.758 165.035 154.59 164.248 153.115 162.674C151.64 161.1 150.902 158.957 150.902 156.247C150.902 154.869 151.089 153.634 151.464 152.541C151.86 151.426 152.41 150.486 153.115 149.721C153.841 148.934 154.711 148.343 155.723 147.95C156.758 147.534 157.913 147.327 159.19 147.327C160.467 147.327 161.612 147.534 162.624 147.95C163.637 148.343 164.495 148.912 165.2 149.655C165.904 150.398 166.444 151.306 166.818 152.377C167.214 153.426 167.412 154.607 167.412 155.919V157.362H155.756V157.657C155.756 158.75 156.097 159.635 156.78 160.313C157.462 160.969 158.464 161.297 159.785 161.297C160.797 161.297 161.667 161.111 162.393 160.739C163.12 160.346 163.747 159.832 164.275 159.198L166.917 162.051C166.256 162.86 165.332 163.56 164.143 164.15C162.955 164.74 161.447 165.035 159.62 165.035ZM159.223 150.803C158.167 150.803 157.319 151.131 156.681 151.787C156.064 152.421 155.756 153.284 155.756 154.377V154.64H162.624V154.377C162.624 153.262 162.316 152.388 161.7 151.754C161.105 151.12 160.28 150.803 159.223 150.803Z" fill="white"/>
<path d="M172.088 164.642V141.752H177.074V160.608H186.98V164.642H172.088Z" fill="white"/>
<path d="M190.996 164.642V147.72H195.882V150.803H196.081C196.279 150.322 196.521 149.874 196.807 149.458C197.093 149.043 197.434 148.682 197.831 148.376C198.249 148.048 198.722 147.797 199.25 147.622C199.801 147.425 200.417 147.327 201.1 147.327C201.914 147.327 202.663 147.469 203.345 147.753C204.027 148.015 204.611 148.42 205.095 148.966C205.579 149.513 205.954 150.18 206.218 150.967C206.504 151.754 206.647 152.661 206.647 153.689V164.642H201.76V154.345C201.76 152.158 200.802 151.065 198.887 151.065C198.513 151.065 198.139 151.12 197.765 151.229C197.412 151.317 197.093 151.47 196.807 151.688C196.521 151.885 196.29 152.136 196.114 152.443C195.96 152.749 195.882 153.109 195.882 153.525V164.642H190.996Z" fill="white"/>
<path d="M214.394 154.443C214.394 152.847 214.57 151.317 214.922 149.852C215.296 148.365 215.792 146.988 216.408 145.72C217.046 144.452 217.784 143.315 218.62 142.309C219.457 141.282 220.337 140.418 221.262 139.719H226.149C225.114 140.418 224.135 141.238 223.21 142.178C222.285 143.096 221.471 144.113 220.766 145.228C220.084 146.343 219.534 147.534 219.115 148.802C218.697 150.07 218.488 151.393 218.488 152.77V156.115C218.488 157.493 218.697 158.815 219.115 160.083C219.534 161.351 220.084 162.543 220.766 163.658C221.471 164.773 222.285 165.789 223.21 166.708C224.135 167.648 225.114 168.468 226.149 169.167H221.262C220.337 168.489 219.457 167.637 218.62 166.609C217.784 165.582 217.046 164.434 216.408 163.166C215.792 161.898 215.296 160.532 214.922 159.067C214.57 157.58 214.394 156.039 214.394 154.443Z" fill="white"/>
<path d="M234.127 140.374H237.726L235.844 151.065H229.57L234.127 140.374ZM242.646 140.374H246.245L244.363 151.065H238.089L242.646 140.374Z" fill="white"/>
<path d="M261.058 155.066H255.246V164.642H250.26V141.752H255.246V151.032H261.058V141.752H266.044V164.642H261.058V155.066Z" fill="white"/>
<path d="M278.413 165.035C275.552 165.035 273.383 164.248 271.908 162.674C270.434 161.1 269.696 158.957 269.696 156.247C269.696 154.869 269.883 153.634 270.257 152.541C270.654 151.426 271.204 150.486 271.908 149.721C272.635 148.934 273.504 148.343 274.517 147.95C275.552 147.534 276.707 147.327 277.984 147.327C279.261 147.327 280.406 147.534 281.418 147.95C282.431 148.343 283.289 148.912 283.994 149.655C284.698 150.398 285.237 151.306 285.612 152.377C286.008 153.426 286.206 154.607 286.206 155.919V157.362H274.55V157.657C274.55 158.75 274.891 159.635 275.574 160.313C276.256 160.969 277.258 161.297 278.578 161.297C279.591 161.297 280.461 161.111 281.187 160.739C281.913 160.346 282.541 159.832 283.069 159.198L285.711 162.051C285.05 162.86 284.126 163.56 282.937 164.15C281.748 164.74 280.24 165.035 278.413 165.035ZM278.017 150.803C276.96 150.803 276.113 151.131 275.475 151.787C274.858 152.421 274.55 153.284 274.55 154.377V154.64H281.418V154.377C281.418 153.262 281.11 152.388 280.494 151.754C279.899 151.12 279.074 150.803 278.017 150.803Z" fill="white"/>
<path d="M290.089 160.87H295.307V144.146H290.089V140.374H300.194V160.87H305.411V164.642H290.089V160.87Z" fill="white"/>
<path d="M309.888 160.87H315.106V144.146H309.888V140.374H319.992V160.87H325.21V164.642H309.888V160.87Z" fill="white"/>
<path d="M337.348 165.035C336.027 165.035 334.838 164.838 333.782 164.445C332.725 164.03 331.823 163.439 331.074 162.674C330.348 161.909 329.786 160.98 329.39 159.887C328.994 158.794 328.796 157.558 328.796 156.181C328.796 154.804 328.994 153.568 329.39 152.475C329.786 151.382 330.348 150.453 331.074 149.688C331.823 148.923 332.725 148.343 333.782 147.95C334.838 147.534 336.027 147.327 337.348 147.327C338.669 147.327 339.857 147.534 340.914 147.95C341.971 148.343 342.862 148.923 343.589 149.688C344.337 150.453 344.91 151.382 345.306 152.475C345.702 153.568 345.9 154.804 345.9 156.181C345.9 157.558 345.702 158.794 345.306 159.887C344.91 160.98 344.337 161.909 343.589 162.674C342.862 163.439 341.971 164.03 340.914 164.445C339.857 164.838 338.669 165.035 337.348 165.035ZM337.348 161.428C338.449 161.428 339.307 161.089 339.924 160.411C340.54 159.734 340.848 158.772 340.848 157.526V154.836C340.848 153.59 340.54 152.628 339.924 151.951C339.307 151.273 338.449 150.934 337.348 150.934C336.247 150.934 335.389 151.273 334.772 151.951C334.156 152.628 333.848 153.59 333.848 154.836V157.526C333.848 158.772 334.156 159.734 334.772 160.411C335.389 161.089 336.247 161.428 337.348 161.428Z" fill="white"/>
<path d="M354.737 158.936H361.01L356.487 169.594H352.854L354.737 158.936Z" fill="white"/>
<path d="M388.622 164.642L387.202 141.752H391.462L392.122 155.46L392.32 159.788H392.617L394.599 146.736H399.056L401.037 159.788H401.335L402.193 141.752H406.288L404.868 164.642H398.594L396.91 152.016H396.58L394.896 164.642H388.622Z" fill="white"/>
<path d="M416.544 165.035C415.223 165.035 414.034 164.838 412.978 164.445C411.921 164.03 411.019 163.439 410.27 162.674C409.544 161.909 408.982 160.98 408.586 159.887C408.19 158.794 407.992 157.558 407.992 156.181C407.992 154.804 408.19 153.568 408.586 152.475C408.982 151.382 409.544 150.453 410.27 149.688C411.019 148.923 411.921 148.343 412.978 147.95C414.034 147.534 415.223 147.327 416.544 147.327C417.865 147.327 419.053 147.534 420.11 147.95C421.167 148.343 422.058 148.923 422.785 149.688C423.533 150.453 424.105 151.382 424.502 152.475C424.898 153.568 425.096 154.804 425.096 156.181C425.096 157.558 424.898 158.794 424.502 159.887C424.105 160.98 423.533 161.909 422.785 162.674C422.058 163.439 421.167 164.03 420.11 164.445C419.053 164.838 417.865 165.035 416.544 165.035ZM416.544 161.428C417.645 161.428 418.503 161.089 419.119 160.411C419.736 159.734 420.044 158.772 420.044 157.526V154.836C420.044 153.59 419.736 152.628 419.119 151.951C418.503 151.273 417.645 150.934 416.544 150.934C415.443 150.934 414.585 151.273 413.968 151.951C413.352 152.628 413.044 153.59 413.044 154.836V157.526C413.044 158.772 413.352 159.734 413.968 160.411C414.585 161.089 415.443 161.428 416.544 161.428Z" fill="white"/>
<path d="M428.88 160.87H432.81V151.491H428.88V147.72H437.697V152.508H437.928C438.082 151.896 438.291 151.306 438.555 150.737C438.841 150.147 439.194 149.633 439.612 149.196C440.052 148.737 440.58 148.376 441.197 148.114C441.813 147.851 442.54 147.72 443.376 147.72H444.994V152.18H441.362C440.151 152.18 439.238 152.541 438.621 153.262C438.005 153.962 437.697 154.826 437.697 155.853V160.87H443.31V164.642H428.88V160.87Z" fill="white"/>
<path d="M448.481 160.87H453.698V144.146H448.481V140.374H458.585V160.87H463.802V164.642H448.481V160.87Z" fill="white"/>
<path d="M479.012 161.559H478.78C478.34 162.587 477.724 163.428 476.931 164.084C476.161 164.718 475.093 165.035 473.728 165.035C472.782 165.035 471.912 164.86 471.12 164.511C470.349 164.161 469.678 163.625 469.106 162.904C468.555 162.182 468.115 161.264 467.785 160.149C467.477 159.034 467.323 157.711 467.323 156.181C467.323 154.651 467.477 153.328 467.785 152.213C468.115 151.098 468.555 150.18 469.106 149.458C469.678 148.737 470.349 148.201 471.12 147.851C471.912 147.502 472.782 147.327 473.728 147.327C474.411 147.327 475.016 147.414 475.545 147.589C476.073 147.764 476.535 148.004 476.931 148.311C477.35 148.617 477.702 148.988 477.988 149.426C478.296 149.841 478.56 150.3 478.78 150.803H479.012V140.374H483.899V164.642H479.012V161.559ZM475.842 161.264C476.7 161.264 477.438 161.056 478.054 160.641C478.692 160.226 479.012 159.57 479.012 158.673V153.689C479.012 152.792 478.692 152.136 478.054 151.721C477.438 151.306 476.7 151.098 475.842 151.098C474.741 151.098 473.894 151.437 473.299 152.115C472.705 152.77 472.408 153.689 472.408 154.869V157.493C472.408 158.673 472.705 159.602 473.299 160.28C473.894 160.936 474.741 161.264 475.842 161.264Z" fill="white"/>
<path d="M494.947 156.673L493.065 148.409V141.752H498.414V148.409L496.532 156.673H494.947ZM495.74 165.035C494.551 165.035 493.715 164.784 493.23 164.281C492.746 163.778 492.504 163.177 492.504 162.477V161.428C492.504 160.75 492.746 160.16 493.23 159.657C493.737 159.154 494.573 158.903 495.74 158.903C496.906 158.903 497.732 159.154 498.216 159.657C498.723 160.16 498.976 160.75 498.976 161.428V162.477C498.976 163.177 498.734 163.778 498.249 164.281C497.765 164.784 496.928 165.035 495.74 165.035Z" fill="white"/>
<path d="M509.595 140.374H515.869L511.312 151.065H507.713L509.595 140.374ZM518.114 140.374H524.388L519.831 151.065H516.232L518.114 140.374Z" fill="white"/>
<path d="M539.498 154.443C539.498 156.039 539.311 157.58 538.937 159.067C538.585 160.532 538.089 161.898 537.451 163.166C536.835 164.434 536.108 165.582 535.272 166.609C534.435 167.637 533.555 168.489 532.63 169.167H527.743C528.756 168.468 529.724 167.648 530.649 166.708C531.595 165.789 532.41 164.773 533.092 163.658C533.797 162.543 534.358 161.351 534.776 160.083C535.195 158.815 535.404 157.493 535.404 156.115V152.77C535.404 151.393 535.195 150.07 534.776 148.802C534.358 147.534 533.797 146.343 533.092 145.228C532.41 144.113 531.595 143.096 530.649 142.178C529.724 141.238 528.756 140.418 527.743 139.719H532.63C533.555 140.418 534.435 141.282 535.272 142.309C536.108 143.315 536.835 144.452 537.451 145.72C538.089 146.988 538.585 148.365 538.937 149.852C539.311 151.317 539.498 152.847 539.498 154.443Z" fill="white"/>
<path d="M552.726 158.936H559L554.476 169.594H550.844L552.726 158.936ZM555.137 153.918C553.904 153.918 553.012 153.656 552.462 153.131C551.934 152.585 551.67 151.94 551.67 151.196V150.049C551.67 149.305 551.934 148.671 552.462 148.147C553.012 147.6 553.904 147.327 555.137 147.327C556.369 147.327 557.25 147.6 557.778 148.147C558.329 148.671 558.604 149.305 558.604 150.049V151.196C558.604 151.94 558.329 152.585 557.778 153.131C557.25 153.656 556.369 153.918 555.137 153.918Z" fill="white"/>
<path d="M33.0991 207V184.11H47.8259V188.144H38.052V193.391H47.4957V197.424H38.052V202.966H47.8259V207H33.0991Z" fill="white"/>
<path d="M56.8604 191.784H56.4972V207H52.2707V184.11H58.2142L63.4644 199.326H63.8276V184.11H68.0541V207H62.1106L56.8604 191.784Z" fill="white"/>
<path d="M72.1687 184.11H79.5981C82.702 184.11 85.0024 185.094 86.4993 187.062C87.9962 189.029 88.7446 191.86 88.7446 195.555C88.7446 199.25 87.9962 202.081 86.4993 204.049C85.0024 206.016 82.702 207 79.5981 207H72.1687V184.11ZM79.2679 203.13C80.7428 203.13 81.8215 202.66 82.5039 201.72C83.1863 200.78 83.5275 199.414 83.5275 197.621V193.456C83.5275 191.685 83.1863 190.33 82.5039 189.39C81.8215 188.45 80.7428 187.98 79.2679 187.98H77.0556V203.13H79.2679Z" fill="white"/>
<defs>
<linearGradient id="paint0_linear" x1="0" y1="0" x2="556.839" y2="359.86" gradientUnits="userSpaceOnUse">
<stop stop-color="#754C9E"/>
<stop offset="1" stop-color="#F26922"/>
</linearGradient>
</defs>
</svg>
