<svg width="320" height="320" viewBox="0 0 320 320" fill="none" xmlns="http://www.w3.org/2000/svg">
<path fill-rule="evenodd" clip-rule="evenodd" d="M160 320C248.366 320 320 248.366 320 160C320 71.6344 248.366 0 160 0C71.6344 0 0 71.6344 0 160C0 248.366 71.6344 320 160 320ZM224.115 124.739C227.175 113.634 229.299 105.927 229.753 104.108C232.976 91.1723 230.436 80.5679 216.384 76.6926C204.06 73.2962 161.797 62.2719 152.127 59.8291C140.139 56.8006 132.942 62.0471 129.159 75.9298C128.818 77.1825 127.885 80.5292 126.518 85.4354C119.096 112.066 98.8703 184.641 90.929 217.68C87.9581 230.028 91.8036 240.306 106.963 244.135C114.451 246.028 124.165 248.807 133.995 251.62C144.061 254.501 154.249 257.416 162.291 259.448C178.185 263.464 188.637 259.784 191.559 247.239C198.126 219.043 215.144 157.293 224.115 124.739ZM139.441 242.88C151.658 245.968 156.236 226.214 143.453 222.981C130.913 219.814 124.949 239.218 139.441 242.88ZM109.767 203.28L143.113 75.8707L218.793 95.6492L181.915 222.552L109.767 203.28Z" fill="white"/>
</svg>
