<svg width="320" height="320" viewBox="0 0 320 320" fill="none" xmlns="http://www.w3.org/2000/svg">
<path fill-rule="evenodd" clip-rule="evenodd" d="M160 320C248.366 320 320 248.366 320 160C320 71.6344 248.366 0 160 0C71.6344 0 0 71.6344 0 160C0 248.366 71.6344 320 160 320ZM177.214 194.362C185.254 196.228 191.832 194.48 192.57 188.547C193.017 184.951 197.36 179.076 202.715 171.832C211.325 160.186 222.551 145.001 224.406 130.057C234.73 46.925 107.235 27.3798 96.2365 115.938C94.7426 127.961 100.609 141.611 105.872 153.86C110.156 163.828 114.041 172.868 113.237 179.349C112.569 184.712 118.37 187.906 126.483 188.075C128.4 169.861 122.635 157.067 117.454 145.568C113.141 135.997 109.232 127.322 110.494 117.166C119.056 48.261 218.259 63.4679 210.227 128.154C208.995 138.077 202.663 146.837 195.822 156.301C187.993 167.131 179.497 178.885 177.214 194.362ZM152.113 113.134C152.113 113.134 140.005 107.166 139.146 124.137C138.286 141.108 136.511 189.079 136.511 189.081L148.402 190.239L152.113 113.134ZM167.072 192.527C167.072 192.527 176.662 148.416 180.528 129.32C184.389 110.227 169.481 114.926 169.481 114.926L155.175 191.412L167.072 192.527ZM184.78 203.671L117.977 195.961C117.977 195.961 115.85 210.288 114.924 217.509C113.61 227.731 128.613 239.857 131.85 240.263C134.946 240.651 139.334 241.169 143.948 241.713C149.121 242.324 154.579 242.967 158.82 243.5C164.061 244.156 180.492 234.23 181.661 225.104C182.468 218.815 184.78 203.671 184.78 203.671ZM131.43 247.059C129.327 263.452 156.796 266.5 158.886 250.211C153.109 249.488 147.038 248.819 141.752 248.236C137.681 247.787 134.075 247.389 131.43 247.059Z" fill="white"/>
</svg>
