<svg width="591" height="307" viewBox="0 0 591 307" fill="none" xmlns="http://www.w3.org/2000/svg">
<rect width="591" height="307" fill="url(#paint0_linear)"/>
<path d="M295.135 34C234.208 34 238.013 60.4492 238.013 60.4492L238.081 87.8503H296.222V96.0775H214.987C214.987 96.0775 176 91.6514 176 153.191C176 214.732 210.029 212.549 210.029 212.549H230.337V183.992C230.337 183.992 229.243 149.928 263.823 149.928C298.403 149.928 321.489 149.928 321.489 149.928C321.489 149.928 353.887 150.452 353.887 118.583C353.887 86.7141 353.887 65.8887 353.887 65.8887C353.887 65.8886 358.806 34 295.135 34ZM263.076 52.4261C268.86 52.4261 273.536 57.1063 273.536 62.897C273.536 68.6876 268.86 73.3679 263.076 73.3679C257.291 73.3679 252.616 68.6876 252.616 62.897C252.616 57.1063 257.291 52.4261 263.076 52.4261Z" fill="white"/>
<path d="M296.865 273C357.792 273 353.987 246.551 353.987 246.551L353.919 219.15H295.778V210.923H377.013C377.013 210.923 416 215.349 416 153.808C416 92.2684 381.971 94.4507 381.971 94.4507H361.663V123.008C361.663 123.008 362.757 157.072 328.177 157.072C293.597 157.072 270.511 157.072 270.511 157.072C270.511 157.072 238.113 156.548 238.113 188.417C238.113 220.286 238.113 241.111 238.113 241.111C238.113 241.111 233.194 273 296.865 273ZM328.924 254.574C323.14 254.574 318.464 249.894 318.464 244.103C318.464 238.312 323.14 233.632 328.924 233.632C334.709 233.632 339.384 238.312 339.384 244.103C339.384 249.894 334.709 254.574 328.924 254.574Z" fill="white"/>
<defs>
<linearGradient id="paint0_linear" x1="0" y1="0" x2="556.839" y2="359.86" gradientUnits="userSpaceOnUse">
<stop stop-color="#754C9E"/>
<stop offset="1" stop-color="#F26922"/>
</linearGradient>
</defs>
</svg>
