<svg width="591" height="307" viewBox="0 0 591 307" fill="none" xmlns="http://www.w3.org/2000/svg">
<rect width="591" height="307" fill="url(#paint0_linear)"/>
<path d="M334.833 212.132C347.873 212.132 360.379 206.952 369.599 197.731C378.82 188.511 384 176.005 384 162.965C384 149.926 378.82 137.42 369.599 128.199C360.379 118.979 347.873 113.799 334.833 113.799H305.333V92.3129C311.894 89.9932 317.424 85.4289 320.945 79.4265C324.466 73.4241 325.752 66.3702 324.575 59.5115C323.398 52.6528 319.835 46.4309 314.514 41.9455C309.194 37.4601 302.459 35 295.5 35C288.541 35 281.806 37.4601 276.486 41.9455C271.165 46.4309 267.602 52.6528 266.425 59.5115C265.248 66.3702 266.534 73.4241 270.055 79.4265C273.576 85.4289 279.106 89.9932 285.667 92.3129V113.799H256.167C243.127 113.799 230.621 118.979 221.401 128.199C212.18 137.42 207 149.926 207 162.965C207 176.005 212.18 188.511 221.401 197.731C230.621 206.952 243.127 212.132 256.167 212.132H266V231.799H246.333C238.509 231.799 231.006 234.907 225.474 240.439C219.941 245.971 216.833 253.475 216.833 261.299C216.833 263.907 217.869 266.408 219.713 268.252C221.558 270.096 224.059 271.132 226.667 271.132C229.275 271.132 231.776 270.096 233.62 268.252C235.464 266.408 236.5 263.907 236.5 261.299C236.5 258.691 237.536 256.19 239.38 254.345C241.224 252.501 243.725 251.465 246.333 251.465H344.667C347.275 251.465 349.776 252.501 351.62 254.345C353.464 256.19 354.5 258.691 354.5 261.299C354.5 263.907 355.536 266.408 357.38 268.252C359.224 270.096 361.725 271.132 364.333 271.132C366.941 271.132 369.442 270.096 371.287 268.252C373.131 266.408 374.167 263.907 374.167 261.299C374.167 253.475 371.059 245.971 365.526 240.439C359.994 234.907 352.491 231.799 344.667 231.799H325V212.132H334.833ZM295.5 54.7987C297.445 54.7987 299.346 55.3754 300.963 56.4559C302.58 57.5364 303.841 59.0722 304.585 60.869C305.329 62.6658 305.524 64.6429 305.144 66.5504C304.765 68.4579 303.828 70.21 302.453 71.5852C301.078 72.9605 299.326 73.897 297.418 74.2764C295.511 74.6558 293.534 74.4611 291.737 73.7168C289.94 72.9726 288.404 71.7122 287.324 70.0951C286.243 68.4781 285.667 66.5769 285.667 64.632C285.667 62.0241 286.703 59.5229 288.547 57.6788C290.391 55.8347 292.892 54.7987 295.5 54.7987V54.7987ZM226.667 162.965C226.667 155.141 229.775 147.638 235.307 142.106C240.839 136.573 248.343 133.465 256.167 133.465H334.833C342.657 133.465 350.161 136.573 355.693 142.106C361.225 147.638 364.333 155.141 364.333 162.965C364.333 170.789 361.225 178.293 355.693 183.825C350.161 189.357 342.657 192.465 334.833 192.465H256.167C248.343 192.465 240.839 189.357 235.307 183.825C229.775 178.293 226.667 170.789 226.667 162.965ZM305.333 231.799H285.667V212.132H305.333V231.799Z" fill="#FFFCFC"/>
<path d="M266 172.799C271.431 172.799 275.834 168.396 275.834 162.965C275.834 157.535 271.431 153.132 266 153.132C260.57 153.132 256.167 157.535 256.167 162.965C256.167 168.396 260.57 172.799 266 172.799Z" fill="#FFFCFC"/>
<path d="M325 172.799C330.431 172.799 334.834 168.396 334.834 162.965C334.834 157.535 330.431 153.132 325 153.132C319.57 153.132 315.167 157.535 315.167 162.965C315.167 168.396 319.57 172.799 325 172.799Z" fill="#FFFCFC"/>
<defs>
<linearGradient id="paint0_linear" x1="0" y1="0" x2="556.839" y2="359.86" gradientUnits="userSpaceOnUse">
<stop stop-color="#754C9E"/>
<stop offset="1" stop-color="#F26922"/>
</linearGradient>
</defs>
</svg>
