<svg width="320" height="320" viewBox="0 0 320 320" fill="none" xmlns="http://www.w3.org/2000/svg">
<path fill-rule="evenodd" clip-rule="evenodd" d="M160 320C248.366 320 320 248.366 320 160C320 71.6344 248.366 0 160 0C71.6344 0 0 71.6344 0 160C0 248.366 71.6344 320 160 320ZM39.9924 98.163L38 242.211L187.692 282L282 220.779L277.842 75.0202L135.889 37L39.9924 98.163ZM129.334 181.338L55.672 219.677L57.4911 119.392L129.68 134.936L129.334 181.338ZM129.825 113.504L65.432 100.773L130.2 61.9698L129.825 113.504ZM176.43 262.134L67.8864 233.133L140.884 194.997L176.95 202.334L176.43 262.134ZM147.93 178.148L149.229 61.0128L253.471 87.5776L186.508 124.583L165.775 120.494L162.888 142.041L177.325 145.145L177.123 184.209L147.93 178.148ZM252.98 217.676L196.528 253.782L196.297 139.199L261.7 104.398L263.375 202.247L210.59 191.285L209.089 208.686L252.98 217.676Z" fill="white"/>
</svg>
