<svg width="204" height="203" viewBox="0 0 204 203" fill="none" xmlns="http://www.w3.org/2000/svg">
<path d="M194.93 93.1575C191.454 93.1575 110.115 92.4623 110.115 8.34247C110.115 3.47603 105.944 0 101.772 0C96.906 0 93.43 4.17124 93.43 8.34247C93.43 11.8185 92.7348 93.1575 8.61493 93.1575C3.74849 93.1575 0.272461 97.3288 0.272461 101.5C0.272461 105.671 4.44369 109.842 8.61493 109.842C12.091 109.842 93.43 110.538 93.43 194.658C93.43 199.524 97.6012 203 101.772 203C106.639 203 110.115 198.829 110.115 194.658C110.115 191.182 110.81 109.842 194.93 109.842C199.796 109.842 203.272 105.671 203.272 101.5C203.272 97.3288 199.796 93.1575 194.93 93.1575ZM101.772 151.555C90.6492 124.442 69.793 109.842 50.3273 102.195C77.4403 91.0719 92.0396 70.2158 99.6868 50.75C110.81 77.863 131.666 92.4623 151.132 100.11C124.714 111.928 110.115 132.784 101.772 151.555Z" fill="#754C9E"/>
</svg>
