<svg width="320" height="320" viewBox="0 0 320 320" fill="none" xmlns="http://www.w3.org/2000/svg">
<path fill-rule="evenodd" clip-rule="evenodd" d="M160 320C248.365 320 320 248.366 320 160C320 71.6344 248.365 0 160 0C71.6345 0 0 71.6344 0 160C0 248.366 71.6345 320 160 320ZM61.0332 196.687L61.0588 198.316L253.22 196.837C253.22 196.837 255.917 106.465 255.917 96.5276C255.917 82.8934 253.764 75.8263 238.755 75.5219C225.573 75.2393 87.488 75 77.2209 75C64.387 75 60.1235 79.6752 59.8188 94.3966C59.5781 104.747 60.8367 184.267 61.0332 196.687ZM85.7043 170.243L85.5522 139.104L84.4429 130.428L101.453 129.363L101.257 158.283L102.171 169.982L85.7043 170.243ZM93.4265 122.6C80.6143 122.6 81.1799 104.312 93.209 104.312V104.399C105.195 104.399 105.129 122.687 93.4265 122.6ZM116.767 129.928C116.767 114.641 124.076 107.074 135.887 107.074V107.161C140.621 106.971 145.255 108.562 148.874 111.619L144.806 121.774C143.458 121.092 141.965 120.749 140.455 120.773C134.234 120.773 132.799 122.665 132.799 133.342V133.603L145.176 132.646L145.458 144.714L132.755 144.932C132.625 152.999 132.625 160.153 132.625 160.153L133.625 170.395L116.615 170.635C116.615 170.635 116.745 157.957 116.745 145.106L108.958 145.236L109.24 135.255L116.767 134.668V129.928ZM200.144 94.1356L202.646 105.226V105.312C192.928 107.364 193.15 113.301 193.396 119.867C193.633 126.176 193.891 133.066 185.374 137.647C193.423 141.814 193.427 149.767 193.431 156.975C193.435 164.514 193.438 171.238 202.646 171.961L199.535 182.399C188.92 186.682 177.087 174.744 179.131 163.132C181.394 150.172 176.652 144.171 165.775 141.844V133.451C176.129 131.472 181.35 125.405 179.175 112.619C177.174 100.92 186.484 91.3087 200.144 94.1356ZM182.59 207.427C182.59 216.495 182.024 216.995 159.271 216.995C136.518 216.995 135.692 216.756 135.713 206.992C86.2917 206.601 40.5464 206.275 36 206.275C36 222.388 38.8279 236 59.2317 236C69.658 236 117.879 235.336 165.039 234.686C210.169 234.064 254.328 233.456 263.466 233.456C280.781 233.456 284 218.234 284 208.058C273.755 208.058 228.771 207.775 182.59 207.427Z" fill="white"/>
</svg>
