<svg width="320" height="320" viewBox="0 0 320 320" fill="none" xmlns="http://www.w3.org/2000/svg">
<path fill-rule="evenodd" clip-rule="evenodd" d="M160 320C248.366 320 320 248.366 320 160C320 71.6344 248.366 0 160 0C71.6344 0 0 71.6344 0 160C0 248.366 71.6344 320 160 320ZM165.155 293C-21.4332 293 -12.9881 26 162.171 26C336.66 26.003 335.562 293 165.155 293ZM161.925 45.0382C11.7435 45.0382 4.5023 273.968 164.485 273.968C310.6 273.968 311.543 45.0382 161.925 45.0382ZM225.51 179.044L258.029 173.022V155.675H222.502L225.51 179.044ZM107.568 141.438L150.457 187.262L170.434 184.929L242.07 103.155L235.647 94.585L160.224 154.135L116.647 130.381L107.568 141.438ZM180.726 66.0049L161.04 67.5871L162.086 101.64L182.184 102.618L180.726 66.0049ZM149.954 67.5871H137.509L134.504 99.608L152.962 102.618L149.954 67.5871ZM98.5346 155.675L63.5477 161.697L66.5558 179.46H101.54L98.5346 155.675ZM157.607 259.315L175.277 254.386V222.781L151.594 224.694L157.607 259.315Z" fill="white"/>
</svg>
