<svg width="591" height="307" viewBox="0 0 591 307" fill="none" xmlns="http://www.w3.org/2000/svg">
<rect width="591" height="307" fill="url(#paint0_linear)"/>
<path d="M309.75 255.181L304.695 240.812C300.97 246.932 296.712 252.52 292.189 257.842C291.923 258.374 291.391 258.64 291.124 259.172C289.262 259.172 287.399 259.438 285.537 259.438C283.674 259.438 281.811 259.438 279.949 259.438C279.683 258.906 279.151 258.64 278.884 258.108C267.975 245.602 258.928 230.435 252.808 213.406C263.452 211.277 274.361 210.213 285.803 210.213C288.73 210.213 291.657 210.213 294.584 210.479L289.528 195.578C288.463 195.578 287.133 195.578 286.069 195.578C273.031 195.578 260.525 196.908 248.551 199.303C245.358 187.329 243.229 174.557 242.697 160.987H277.554L275.159 154.069C274.361 151.674 273.829 149.013 273.829 146.352H242.165C242.697 133.048 244.559 120.276 248.019 108.036C259.992 110.431 272.498 111.761 285.537 111.761C298.309 111.761 311.081 110.431 323.055 108.036C325.449 116.551 327.046 125.598 328.11 134.911L343.277 140.232C342.479 127.993 340.35 116.019 337.423 104.577C348.865 101.384 359.774 96.8604 369.886 91.5387C370.152 91.2727 370.684 91.2728 370.95 91.0067C382.392 106.706 389.842 125.598 391.172 146.352H361.105L403.944 161.253C404.477 161.519 405.275 161.785 405.807 162.051C406.073 159.39 406.073 156.464 406.073 153.537C406.073 87.0154 352.058 33 285.537 33C219.281 33 165 87.0154 165 153.537C165 219.792 219.015 273.807 285.537 273.807C298.309 273.807 310.815 271.679 322.256 267.953C316.668 265.825 311.879 261.035 309.75 255.181ZM360.839 79.5649C360.573 79.831 360.04 80.0971 359.774 80.0971C351.26 84.3545 342.213 87.8136 332.634 90.4745C327.578 76.6381 321.192 64.132 313.209 52.9564C312.943 52.4242 312.411 51.8921 312.145 51.3599C331.037 56.1495 347.534 66.2606 360.839 79.5649ZM279.949 48.1669C281.811 48.1669 283.674 47.9009 285.537 47.9009C287.399 47.9009 289.262 47.9008 291.124 48.1669C291.391 48.433 291.923 48.9651 292.189 49.4973C303.098 62.0033 312.145 77.1701 318.265 94.1996C307.622 96.3283 296.712 97.3926 285.271 97.3926C273.829 97.3926 262.919 96.3283 252.276 94.1996C258.662 77.1701 267.443 62.0033 278.352 49.4973C279.15 48.9651 279.417 48.433 279.949 48.1669ZM258.662 51.3599C258.396 51.8921 257.864 52.4242 257.598 52.9564C249.615 64.132 243.229 76.9041 238.173 90.7405C228.594 88.0797 219.547 84.6207 211.033 80.3633C210.767 80.0972 210.235 80.0972 209.968 79.8311C223.273 66.2607 240.036 56.1495 258.662 51.3599ZM200.389 91.0067C200.655 91.2728 201.188 91.2727 201.454 91.5387C211.565 96.8604 222.474 101.118 233.916 104.577C230.457 117.881 228.062 131.718 227.796 146.352H180.167C181.497 125.598 188.948 106.706 200.389 91.0067ZM200.389 216.067C188.948 200.368 181.497 181.476 180.167 160.987H227.796C228.328 175.356 230.457 189.458 233.916 202.762C222.474 205.956 211.565 210.479 201.454 215.801C200.922 215.534 200.655 215.801 200.389 216.067ZM209.968 227.508C210.235 227.242 210.767 227.242 211.033 226.976C219.547 222.719 228.594 219.26 238.173 216.599C243.229 230.435 249.615 242.941 257.598 254.383C257.864 254.915 258.396 255.447 258.662 255.98C240.036 250.658 223.273 240.812 209.968 227.508Z" fill="white"/>
<path d="M424.168 248.263L374.676 198.771L398.889 186.531C402.881 184.402 402.615 178.549 398.357 176.952L297.245 141.829C293.254 140.498 289.262 144.224 290.593 148.481L325.716 249.593C327.313 253.851 333.166 254.383 335.295 250.125L347.535 225.912L397.027 275.403C399.156 277.532 402.349 277.532 404.211 275.403L424.168 255.447C426.296 253.585 426.296 250.392 424.168 248.263Z" fill="white"/>
<defs>
<linearGradient id="paint0_linear" x1="0" y1="0" x2="556.839" y2="359.86" gradientUnits="userSpaceOnUse">
<stop stop-color="#754C9E"/>
<stop offset="1" stop-color="#F26922"/>
</linearGradient>
</defs>
</svg>
