<svg width="320" height="320" viewBox="0 0 320 320" fill="none" xmlns="http://www.w3.org/2000/svg">
<path fill-rule="evenodd" clip-rule="evenodd" d="M160 320C248.366 320 320 248.366 320 160C320 71.6344 248.366 0 160 0C71.6344 0 0 71.6344 0 160C0 248.366 71.6344 320 160 320ZM272.24 217.17L286 170.065L250.706 151.366C250.273 141.416 248.356 131.552 244.849 122.233L265.745 88.9107L234.226 55.925L201.55 75.5952C195.835 72.8726 189.599 70.5749 182.799 68.7929C176.919 67.2546 171.202 66.2772 165.649 65.7842L149.155 37L104.673 47.6581L106.217 82.4059C97.6738 88.854 90.3922 96.8179 84.6092 105.759L47.9621 104.518L35 148.156L69.4905 167.022C70.462 176.683 73.0316 186.216 77.3475 195.208L56.5626 227.052L90.7028 262.457L126.478 239.628C132.042 241.96 138.033 243.997 144.497 245.688C147.089 246.371 149.636 246.926 152.149 247.382L171.976 283L219.879 271.297L216.697 231.667C222.697 226.766 227.984 221.001 232.491 214.604L272.24 217.17ZM172.726 111.303C112.217 95.458 82.2817 187.757 152.209 206.073C211.162 221.516 234.405 127.461 172.726 111.303Z" fill="white"/>
</svg>
